<svg version="1.1" id="Layer_1" xmlns="http://www.w3.org/2000/svg" xmlns:xlink="http://www.w3.org/1999/xlink" x="0px" y="0px"
	 width="100%" viewBox="0 0 1850 1850" enable-background="new 0 0 1850 1850" xml:space="preserve">

<path fill="#778EE3" opacity="1.000000" stroke="none"
	d="
M447.001282,734.997559
	C451.675720,733.991943 449.939301,729.220337 451.813843,726.435547
	C455.752899,720.583923 458.567108,713.937378 461.516846,707.468384
	C464.248962,701.476746 466.447327,695.243591 469.095123,689.210876
	C470.461487,686.097717 472.722046,683.335876 473.813507,680.152954
	C475.375854,675.596924 476.241760,670.814392 481.133301,668.378601
	C481.503326,668.194336 481.690979,667.573181 481.887573,667.122070
	C485.015900,659.943787 488.275574,652.817932 491.197815,645.556458
	C492.999023,641.080566 493.295898,635.675781 496.010468,631.961243
	C501.009583,625.120667 499.130615,614.661316 507.941711,610.028198
	C508.532806,609.717407 508.743622,608.628357 509.068115,607.874084
	C512.876160,599.021118 516.561462,590.112671 520.541931,581.338074
	C521.666382,578.859314 523.347900,576.463867 525.293884,574.562378
	C529.313171,570.635193 529.599121,563.989014 535.705811,561.388245
	C537.779968,560.504822 538.363098,556.580200 540.215332,554.593079
	C542.260803,552.398621 544.972229,550.821533 547.409668,548.997009
	C549.816650,547.195251 552.221313,545.389038 554.668213,543.642578
	C557.149597,541.871338 559.673340,540.158875 562.194580,538.444214
	C563.497009,537.558411 565.439453,537.023865 566.041870,535.809387
	C567.822388,532.219360 570.361511,530.688110 574.278564,529.527588
	C577.370972,528.611389 579.554871,524.840088 582.314880,522.544250
	C587.272400,518.420349 591.812988,512.815979 597.552734,510.898865
	C602.839233,509.133148 606.502625,506.069153 610.571472,503.044708
	C613.955811,500.529144 617.228577,497.862579 620.629211,495.369995
	C622.443298,494.040314 624.544006,493.088989 626.299438,491.694977
	C628.659363,489.820984 630.810059,487.683533 633.052490,485.661377
	C633.299561,485.438538 633.538025,485.075073 633.816101,485.036957
	C640.486755,484.122314 644.643799,478.739105 650.191589,475.832947
	C652.234802,474.762665 654.113403,473.382538 656.124023,472.244324
	C659.360291,470.412262 662.638062,468.653015 665.909973,466.884521
	C667.364319,466.098419 669.381958,465.742004 670.226807,464.543884
	C674.503601,458.478058 681.426941,457.401245 687.553101,454.784637
	C688.575684,454.347870 689.480957,453.562744 690.324341,452.808746
	C690.798706,452.384583 690.907715,451.367920 691.399414,451.175659
	C695.953491,449.394409 700.549438,447.718994 705.148926,446.056183
	C705.869202,445.795807 706.934998,446.021240 707.389709,445.568634
	C712.265991,440.714417 719.592529,442.459045 724.956787,438.959076
	C726.175598,438.163879 727.515442,437.499939 728.880188,436.992584
	C733.122681,435.415405 737.391785,433.906097 741.682129,432.464447
	C742.413452,432.218719 743.652710,432.791687 744.062012,432.385895
	C749.303772,427.189331 756.571594,428.887207 762.665955,426.732849
	C766.639099,425.328369 770.311890,423.096375 774.219177,421.475830
	C776.825317,420.394928 779.607056,419.737640 782.310242,418.890747
	C782.236694,418.444611 782.163147,417.998444 782.089600,417.552307
	C783.159180,418.157623 784.228760,418.762970 785.726135,419.610382
	C786.210510,417.655731 786.587708,416.133667 786.821594,415.189941
	C791.329529,413.798859 795.522400,412.466675 799.739441,411.215881
	C803.073547,410.226959 806.435364,409.330994 809.788391,408.406250
	C813.758362,407.311340 817.734863,406.239594 821.703613,405.140137
	C826.258362,403.878326 830.797058,402.556763 835.364380,401.342621
	C837.426575,400.794464 839.567078,400.538849 841.625854,399.980286
	C844.597046,399.174194 847.512878,398.165436 850.479187,397.339600
	C851.837219,396.961548 853.274780,396.877777 854.649231,396.547852
	C857.767761,395.799255 860.871216,394.987579 863.975281,394.180206
	C864.287476,394.098999 864.668335,393.658600 864.838196,393.743439
	C870.083313,396.364563 874.352295,391.146515 879.397705,391.979584
	C886.032043,393.074921 892.154419,391.752319 897.557800,387.157349
	C900.808350,390.649261 903.967712,390.758087 907.227844,387.590149
	C907.873413,386.962799 909.560974,386.305206 909.860779,386.596222
	C912.672791,389.325897 915.399170,387.298981 917.144836,385.821899
	C921.694458,381.972107 926.975769,385.376587 931.610107,383.657928
	C934.915771,382.431946 938.445129,381.603119 941.477417,379.892761
	C946.362244,377.137512 950.232361,379.264435 955.186401,382.173462
	C956.085510,380.506866 957.109802,378.608154 957.863403,377.211243
	C964.519409,380.586731 969.739746,381.770081 975.910156,378.871216
	C978.813721,377.507111 983.371521,377.765503 986.428650,379.060974
	C991.311768,381.130249 995.234070,383.069550 1000.694092,379.881500
	C1003.168701,378.436646 1007.538025,380.057434 1011.008972,380.557465
	C1013.616821,380.933197 1016.162659,381.739563 1018.804321,382.711121
	C1018.872559,383.067993 1018.861328,383.227356 1018.861328,383.227356
	C1018.861328,383.227356 1018.999939,382.998779 1018.999939,382.998779
	C1023.033508,381.202484 1026.833252,381.204926 1031.354004,382.236694
	C1036.344971,383.375763 1041.874023,382.165405 1047.168213,381.965454
	C1052.404663,381.767731 1057.849609,380.585052 1062.809814,381.656006
	C1066.724609,382.501282 1070.455444,383.095703 1074.404053,382.996307
	C1076.880981,382.933960 1079.421387,382.813049 1081.834106,383.257080
	C1089.502319,384.668488 1097.171753,386.139893 1104.736206,388.010864
	C1107.149048,388.607635 1109.133423,390.764923 1111.500488,391.767456
	C1113.764160,392.726166 1116.235229,393.402222 1118.676270,393.697815
	C1127.871582,394.811401 1135.105103,401.030151 1143.737427,403.276489
	C1151.608521,405.324738 1158.796387,408.501984 1165.732788,412.540619
	C1166.399414,412.928772 1167.411865,413.104492 1168.151245,412.922180
	C1171.850952,412.009735 1174.853394,413.046265 1177.699097,415.984436
	C1178.066284,416.122040 1178.218506,416.137512 1178.218506,416.137512
	C1178.218506,416.137512 1177.995117,416.002625 1177.995117,416.002625
	C1179.399292,415.976044 1181.001831,415.494110 1182.172363,416.003967
	C1186.566528,417.917908 1190.747070,420.322998 1195.143433,422.231171
	C1201.130005,424.829590 1207.251831,427.115082 1213.296021,429.582672
	C1221.070923,432.756866 1228.806152,436.028748 1236.596680,439.163818
	C1242.920410,441.708649 1249.315918,444.075409 1255.635986,446.628784
	C1256.437012,446.952393 1257.086548,447.851624 1257.613403,448.616974
	C1259.721924,451.679321 1261.581787,454.934448 1263.916992,457.806580
	C1264.649780,458.707947 1266.585449,458.631287 1267.958984,458.999176
	C1271.726196,465.993225 1276.672363,471.868134 1284.622070,474.722504
	C1285.419434,475.008759 1285.893921,476.465515 1286.321655,477.463287
	C1288.237305,481.932129 1291.005737,485.293640 1296.025391,486.639709
	C1297.573608,487.054871 1299.422607,488.692261 1299.941040,490.184418
	C1301.859009,495.705261 1305.117065,499.160156 1311.197388,499.620911
	C1312.093262,499.688751 1313.541382,500.643738 1313.669067,501.374298
	C1314.623291,506.836060 1318.396118,509.754028 1322.743042,512.396423
	C1323.909302,513.105408 1324.525024,514.698914 1325.439941,515.849426
	C1326.145386,516.736450 1327.138428,518.413574 1327.635986,518.287598
	C1332.021973,517.177307 1332.945679,521.160278 1333.795532,523.280396
	C1336.788086,530.747131 1344.184326,534.050781 1348.643677,540.103699
	C1351.643066,544.174927 1355.853760,547.365967 1359.596924,550.871338
	C1361.230347,552.401062 1363.161621,553.617432 1364.761841,555.176758
	C1368.172241,558.499878 1371.390015,562.020935 1374.804932,565.339172
	C1379.980469,570.368042 1385.292236,575.257141 1390.456177,580.297791
	C1391.337280,581.157898 1391.651855,582.570007 1392.431763,583.567993
	C1394.419800,586.111816 1396.498657,588.586365 1398.597046,591.040833
	C1399.117432,591.649353 1399.932251,592.001709 1400.472656,592.597839
	C1403.906982,596.387390 1407.436157,600.103638 1410.655884,604.069946
	C1412.328735,606.130798 1413.652222,608.555603 1414.741211,610.991333
	C1416.402344,614.707092 1417.782715,618.553284 1419.176758,622.382446
	C1422.197266,630.678833 1426.102783,638.807129 1427.833740,647.370544
	C1429.246338,654.358643 1432.029053,661.161255 1430.941284,668.912476
	C1430.172852,674.386780 1432.693604,680.308533 1433.645508,686.047180
	C1433.937988,687.811340 1433.838745,689.636719 1434.021240,691.423584
	C1435.225708,703.215759 1436.580322,714.994080 1437.650024,726.798279
	C1438.929810,740.920532 1439.696289,755.095032 1441.262817,769.182678
	C1441.852905,774.488953 1442.033203,779.934326 1444.808594,785.082520
	C1446.284424,787.820190 1444.549683,792.111145 1445.046753,795.589172
	C1446.251831,804.020630 1448.069458,812.363403 1449.332520,820.788086
	C1450.019409,825.370056 1449.655884,830.126526 1450.518555,834.661072
	C1451.809326,841.447083 1454.140869,848.041687 1455.316406,854.841003
	C1456.281006,860.419983 1456.068359,866.192444 1456.635010,871.853333
	C1457.085693,876.357605 1458.004883,880.812805 1458.573853,885.307800
	C1459.394409,891.791687 1460.602905,898.284912 1460.691650,904.787109
	C1460.785889,911.691650 1459.649658,918.605469 1459.293701,925.527710
	C1459.167603,927.979919 1460.007568,930.472717 1459.969604,932.940308
	C1459.867920,939.567993 1459.490479,946.190918 1459.296387,952.817871
	C1459.046997,961.332642 1459.068237,969.860474 1458.597412,978.361938
	C1458.235352,984.898987 1457.341309,991.409424 1456.588989,997.920837
	C1456.197144,1001.312073 1455.507935,1004.668884 1455.114624,1008.059998
	C1454.026611,1017.445801 1453.231445,1026.871704 1451.870728,1036.216187
	C1451.414551,1039.348511 1449.328613,1042.206909 1448.457642,1045.321777
	C1444.828613,1058.302490 1441.309204,1071.314941 1437.892944,1084.353271
	C1436.223267,1090.725342 1435.896729,1097.681396 1433.081665,1103.456421
	C1430.229614,1109.306763 1429.000000,1115.022583 1428.288208,1121.301270
	C1427.929565,1124.463379 1424.889893,1127.226562 1423.729980,1130.412964
	C1421.438110,1136.708740 1419.890137,1143.280640 1417.488770,1149.528687
	C1415.990356,1153.427490 1413.203979,1156.814575 1411.509766,1160.658203
	C1408.629150,1167.192627 1404.897461,1173.721191 1403.886597,1180.599609
	C1402.998169,1186.644775 1401.891113,1190.866089 1396.395630,1194.331909
	C1393.873413,1195.922729 1393.549683,1200.774536 1391.825317,1203.926636
	C1390.460205,1206.422119 1388.380981,1208.515503 1386.794922,1210.904419
	C1384.438721,1214.453003 1382.225952,1218.097168 1379.979370,1221.717651
	C1379.366943,1222.704590 1378.671997,1223.694092 1378.320801,1224.781250
	C1375.143555,1234.613159 1369.532349,1243.396973 1361.874268,1249.656372
	C1353.764282,1256.285278 1349.221313,1265.792969 1340.233521,1271.810913
	C1330.038208,1278.637329 1321.338379,1287.823120 1312.501221,1296.505127
	C1307.056396,1301.854370 1300.844482,1306.172241 1295.233154,1311.189331
	C1288.878540,1316.871094 1281.805664,1321.254517 1274.805786,1325.917603
	C1269.044678,1329.755371 1263.899292,1334.505005 1258.271851,1338.560181
	C1252.588867,1342.655273 1246.638062,1346.377441 1240.827148,1350.296631
	C1239.191528,1351.400024 1237.608398,1352.586670 1236.048828,1353.796387
	C1228.959961,1359.295288 1222.013550,1364.987793 1214.773315,1370.278931
	C1207.998901,1375.229858 1200.816895,1379.621216 1194.009521,1384.529419
	C1189.119141,1388.055542 1184.586060,1392.073853 1179.809570,1395.763672
	C1178.746338,1396.584839 1177.362183,1397.037476 1176.069702,1397.504395
	C1174.101929,1398.215088 1171.139893,1398.169556 1170.248535,1399.527222
	C1165.780029,1406.333984 1158.408691,1406.768188 1151.734741,1408.815308
	C1138.866699,1412.762451 1125.560303,1414.037109 1112.257446,1415.406860
	C1103.888062,1416.268555 1095.566528,1417.627563 1087.188599,1418.367920
	C1078.277954,1419.154907 1069.320068,1419.389771 1060.393677,1420.021606
	C1050.056152,1420.753174 1039.733154,1421.687378 1029.399048,1422.469971
	C1022.809326,1422.969116 1016.203796,1423.794556 1009.618164,1423.686768
	C999.167542,1423.516235 988.727539,1422.687500 978.283081,1422.137573
	C977.451538,1422.093750 976.592224,1421.894897 975.792480,1422.034912
	C964.829529,1423.955322 953.864380,1421.756348 942.912598,1422.116699
	C936.962036,1422.312500 931.034790,1423.181763 925.092468,1423.694702
	C924.118103,1423.778687 923.121033,1423.571045 922.133118,1423.531128
	C917.220703,1423.333252 912.309204,1423.056763 907.394653,1422.977295
	C900.641724,1422.868164 893.883972,1423.015869 887.132568,1422.863770
	C877.904114,1422.655884 868.665344,1422.490356 859.457947,1421.891357
	C851.873962,1421.398071 844.345886,1420.056641 836.762451,1419.539917
	C829.342346,1419.034302 821.866455,1419.345093 814.447021,1418.833984
	C807.934631,1418.385254 801.453064,1417.389648 794.981506,1416.469116
	C778.899475,1414.181519 762.808350,1411.941284 746.766418,1409.395020
	C738.552368,1408.091187 730.077759,1407.135132 722.372437,1404.269653
	C713.966370,1401.143677 706.331970,1395.956665 698.327698,1391.731689
	C691.471130,1388.112305 684.569763,1384.577637 677.681152,1381.019287
	C676.814880,1380.571777 675.847961,1380.300537 675.024597,1379.791138
	C665.347351,1373.803101 655.688782,1367.784668 646.024841,1361.774902
	C637.958801,1356.759277 630.063782,1351.436401 621.774536,1346.821533
	C614.434082,1342.734985 606.763062,1339.186157 599.044434,1335.847168
	C586.758667,1330.532471 574.348572,1325.372070 565.403931,1314.923584
	C561.185974,1309.996338 558.060364,1304.150024 554.210388,1298.887939
	C548.537476,1291.134521 542.459045,1283.672485 536.927429,1275.822510
	C531.796204,1268.540771 526.129822,1261.360229 522.616760,1253.299316
	C519.693420,1246.591431 515.163391,1241.370850 511.392731,1235.444702
	C502.726013,1221.823486 494.346527,1208.010986 486.196045,1194.073975
	C482.700562,1188.096924 480.215759,1181.538208 477.002350,1175.384521
	C472.508606,1166.778931 467.410278,1158.473389 463.232574,1149.723389
	C459.668671,1142.258911 457.241180,1134.260986 453.946075,1126.657227
	C449.600891,1116.630005 444.631195,1106.869263 440.423828,1096.787720
	C435.976318,1086.130615 432.152466,1075.214355 427.952484,1064.451782
	C427.079529,1062.214844 425.735474,1060.163696 424.638641,1058.011597
	C423.830109,1056.425049 422.691376,1054.887451 422.362061,1053.198975
	C421.458801,1048.568115 421.206390,1043.799194 420.141266,1039.213867
	C418.591217,1032.540894 417.029114,1025.997192 416.153564,1019.104858
	C415.296936,1012.361267 418.504242,1006.816040 417.724213,1000.344177
	C416.480469,990.024902 417.020325,979.494385 416.718353,969.055664
	C416.622589,965.745239 416.040833,962.443054 416.038391,959.136841
	C416.030609,948.587646 415.846313,938.021606 416.359100,927.492737
	C417.350311,907.141052 418.567841,886.794678 420.120789,866.479004
	C420.686798,859.074463 422.616730,851.782959 423.644501,844.400940
	C424.139801,840.843262 423.586395,837.125488 424.202271,833.601501
	C425.947815,823.613464 428.022034,813.682068 430.046783,803.744690
	C430.337555,802.317688 431.067078,800.979736 431.598480,799.602478
	C431.955231,798.677856 432.900543,797.436584 432.594574,796.881958
	C428.431976,789.335999 434.539154,783.434753 435.679474,776.769226
	C436.809509,770.163391 437.951630,763.554199 439.354279,757.003357
	C439.862335,754.630432 441.072876,752.392334 442.081085,750.145752
	C443.807617,746.298523 445.707550,742.526855 447.341156,738.642090
	C447.675201,737.847717 447.157074,736.695007 447.015869,735.353760
	C447.000000,735.000000 447.001282,734.997559 447.001282,734.997559
z"/>
<path fill="#E1C178" opacity="1.000000" stroke="none"
	d="
M887.834595,599.086609
	C886.991333,601.620239 886.148010,604.153809 885.114868,607.257996
	C883.668945,606.837708 882.252441,606.425964 880.361755,606.021912
	C879.590942,606.166687 879.294434,606.303772 878.997925,606.440918
	C879.046875,606.379456 879.134583,606.320923 879.139343,606.256226
	C879.411865,602.556335 884.777771,600.813721 882.961426,596.313843
	C883.488098,596.156494 884.014771,595.999084 883.940552,595.357300
	C883.102905,595.907471 882.866211,596.941956 882.629517,597.976440
	C883.597473,597.471191 884.565430,596.965942 885.533447,596.460693
	C886.609070,596.255981 887.684692,596.051208 887.889709,596.012207
	C887.889709,596.006531 887.889709,597.121033 887.862183,598.661072
	C889.432190,597.550232 891.029785,596.013855 892.885559,593.849854
	C895.932983,591.769043 898.722229,590.315918 901.892395,588.878784
	C905.872070,589.504150 909.154541,589.018433 912.057190,585.929077
	C914.752258,585.481323 917.140747,585.261230 919.727173,584.986694
	C920.196716,584.897034 920.469055,584.869263 920.742065,584.848999
	C925.856445,584.590637 931.089172,583.115784 934.992065,588.550842
	C936.360291,590.456299 940.157654,590.652222 941.451782,592.569641
	C945.482178,598.541077 949.814636,604.611206 952.238953,611.292908
	C955.844604,621.230408 958.269348,631.646484 960.550354,642.001221
	C963.084351,653.504822 964.761414,665.194336 967.053284,676.754944
	C969.432312,688.755432 971.990662,700.723328 974.677856,712.658813
	C976.781555,722.002869 979.367920,731.239441 981.401245,740.597412
	C982.240845,744.461609 982.096741,748.530151 982.582886,752.483337
	C982.978821,755.702637 983.499695,758.922424 984.226501,762.081848
	C985.656555,768.298279 987.263733,774.474121 988.817505,780.661682
	C988.894104,780.966858 989.298218,781.215149 989.317627,781.505432
	C989.678284,786.893860 989.924622,792.291260 990.376404,797.671509
	C990.550293,799.742676 990.588135,802.200623 991.706177,803.745483
	C994.815613,808.041992 994.833923,812.653931 994.874451,817.631714
	C994.904724,821.339478 996.628113,825.012146 997.391052,828.742676
	C997.908813,831.274414 998.069153,833.879272 998.337952,836.037842
	C1008.909241,835.445801 1020.184448,834.771545 1031.464844,834.195862
	C1040.860962,833.716248 1050.259399,833.201599 1059.663330,832.973450
	C1072.902832,832.652405 1086.151978,832.318420 1099.389771,832.505249
	C1107.000732,832.612610 1114.590332,833.831909 1122.202148,834.375977
	C1129.640137,834.907593 1137.104858,835.076721 1144.537964,835.660522
	C1153.469116,836.362061 1162.377563,837.351257 1171.299072,838.180298
	C1175.003174,838.524414 1178.720093,838.730896 1182.423706,839.079346
	C1191.414429,839.925354 1200.405884,840.768799 1209.385376,841.723450
	C1211.920288,841.992920 1214.596069,842.220459 1216.891602,843.203918
	C1222.266113,845.506409 1227.915283,845.728760 1233.543701,846.611877
	C1238.092773,847.325684 1242.264648,850.244080 1246.699829,851.932129
	C1252.071899,853.976746 1257.783569,855.270752 1262.905518,857.789978
	C1267.748901,860.172241 1272.108765,863.598572 1276.489624,866.825867
	C1277.917969,867.877991 1278.743164,869.748535 1279.981689,871.967590
	C1285.987305,876.400146 1287.843872,884.732300 1283.275635,890.053101
	C1285.019043,890.285828 1286.728516,891.072205 1287.505249,890.527710
	C1292.787109,886.824829 1297.120483,891.328674 1299.917480,893.500732
	C1304.637085,897.165771 1306.878418,903.835205 1305.012573,909.849976
	C1302.592651,917.651672 1300.101440,925.679749 1289.892944,928.026123
	C1285.989868,928.923157 1280.803345,930.602966 1278.656250,935.642090
	C1278.291870,936.497192 1276.054810,936.970642 1274.714600,936.911072
	C1271.484009,936.767395 1268.515869,936.464417 1266.021973,939.424683
	C1265.410645,940.150452 1262.835083,939.221619 1261.162598,939.053528
	C1259.343506,939.071045 1257.512817,938.963074 1255.707886,939.132385
	C1251.927612,939.486816 1248.162842,940.005859 1244.386719,940.410522
	C1243.749268,940.478821 1242.828491,940.003967 1242.474243,940.300598
	C1236.471436,945.327332 1228.971191,942.604431 1222.373657,944.354126
	C1220.880859,944.750000 1219.736450,946.459534 1218.353149,946.310364
	C1216.358643,946.427734 1214.259521,947.004089 1212.388672,946.578308
	C1206.185425,945.166626 1200.656128,949.687073 1195.190552,949.023987
	C1189.323364,948.312256 1184.154297,950.984375 1178.484131,950.232422
	C1175.969238,949.898926 1173.249878,951.654297 1170.579346,951.844666
	C1162.312866,952.433716 1154.018311,952.631531 1145.752930,953.232483
	C1144.457275,953.326599 1143.256836,954.729187 1141.996094,954.653992
	C1137.659180,954.653992 1133.322266,954.647705 1128.985352,954.667175
	C1128.675293,954.668579 1128.257935,955.043091 1128.072021,954.934204
	C1121.058838,950.824524 1113.954834,955.975952 1106.926392,954.706299
	C1101.715210,953.765015 1096.520508,952.716858 1091.286865,951.925415
	C1089.708618,951.686707 1087.774658,951.669006 1086.431152,952.369690
	C1079.624756,955.919312 1072.434937,953.876526 1065.577393,953.500427
	C1058.202148,953.095947 1051.098511,952.774109 1043.973389,955.061035
	C1042.585815,955.506348 1040.742310,954.256409 1039.123291,954.301453
	C1031.293335,954.519470 1023.460632,954.794373 1015.645569,955.304321
	C1012.711609,955.495728 1010.369690,956.700134 1010.335999,960.452393
	C1010.306213,963.770630 1009.308655,967.098633 1009.436951,970.395142
	C1009.597046,974.506470 1010.471680,978.590210 1011.042542,982.685181
	C1011.102173,983.113281 1011.416077,983.721252 1011.238220,983.935730
	C1006.757690,989.337280 1009.906982,995.286621 1009.934998,1001.010315
	C1009.947510,1003.566406 1009.580750,1006.129639 1009.675354,1008.679016
	C1009.883789,1014.295776 1011.395935,1019.870056 1010.184937,1025.531372
	C1009.810486,1027.281860 1009.238953,1029.012573 1009.074707,1030.781738
	C1008.614685,1035.734375 1008.998474,1040.884277 1007.733765,1045.603760
	C1006.817566,1049.023071 1007.707031,1051.413208 1009.080505,1054.031738
	C1005.664734,1056.869263 1005.710571,1060.204590 1007.211792,1063.841309
	C1008.957336,1068.069580 1006.493103,1070.920654 1004.823425,1072.829346
	C1005.037659,1075.092285 1004.860901,1076.575684 1005.348633,1077.792847
	C1007.380432,1082.862793 1002.141113,1087.722412 1004.996643,1092.882202
	C1005.284973,1093.403198 1003.579102,1095.027954 1003.870178,1095.914795
	C1004.500427,1102.091064 1005.155701,1108.265015 1005.753662,1114.444458
	C1006.338806,1120.491333 1006.914185,1126.540039 1007.364563,1132.597778
	C1007.430542,1133.485352 1006.765808,1134.421631 1006.463745,1135.343384
	C1006.082581,1136.506470 1005.182739,1137.823608 1005.450073,1138.821411
	C1006.951843,1144.426636 1005.603760,1149.626587 1004.179260,1155.019897
	C1003.495239,1157.609741 1004.803894,1160.662109 1004.746094,1163.495483
	C1004.652893,1168.065430 1004.175842,1172.627563 1003.802124,1178.045776
	C1003.435242,1178.356934 1002.329346,1179.294800 1001.223389,1180.232788
	C1001.713135,1180.307495 1002.202881,1180.382324 1002.692627,1180.457031
	C1001.437805,1190.421265 1000.182983,1200.385498 998.479736,1210.349121
	C997.786133,1210.419434 997.541016,1210.490479 997.295898,1210.561523
	C997.477051,1210.757568 997.658203,1210.953613 997.839355,1211.149658
	C998.017883,1215.583984 998.526245,1220.036011 998.289917,1224.448120
	C998.006165,1229.746460 997.157654,1235.020386 996.418457,1240.286011
	C995.983093,1243.387207 995.119446,1246.431641 994.744141,1249.537231
	C994.155457,1254.409424 990.272888,1256.626953 986.864014,1259.989502
	C986.260132,1260.645264 985.951111,1260.805908 985.642090,1260.966431
	C985.642090,1260.966431 985.313538,1260.795044 984.750488,1260.874756
	C983.247681,1261.212891 982.287109,1261.413086 981.372009,1261.740356
	C978.008362,1262.943604 974.708069,1266.766846 971.366272,1261.358643
	C970.597717,1260.114746 968.216675,1259.867188 966.308716,1258.914551
	C961.583374,1259.931030 958.322571,1262.529785 956.474976,1267.162598
	C955.038696,1267.735596 953.561401,1267.825684 952.737915,1268.605835
	C948.911804,1272.230835 944.571594,1272.754639 939.519287,1271.213135
	C936.204529,1265.873291 930.299744,1262.494385 930.243164,1255.140259
	C930.178528,1246.751343 928.924683,1238.371582 928.187500,1229.987915
	C927.454956,1221.656372 926.722351,1213.324707 926.230591,1204.646484
	C926.904480,1202.789551 927.755249,1201.259521 927.685120,1199.772827
	C927.531128,1196.508911 926.911011,1193.266968 926.481201,1190.016113
	C925.673157,1183.519287 924.812134,1177.028320 924.070862,1170.523926
	C923.199097,1162.874512 922.350830,1155.220581 921.635681,1147.555420
	C920.343445,1133.704224 919.022034,1119.853271 917.993652,1105.981445
	C917.575623,1100.342285 918.102478,1094.637207 917.791870,1088.984497
	C917.613220,1085.733276 916.257080,1082.547974 916.067139,1079.295898
	C915.671692,1072.524414 915.743958,1065.726807 915.536377,1058.942627
	C915.410461,1054.829834 915.024048,1050.724243 914.922668,1046.611328
	C914.641296,1035.197876 914.624695,1023.775208 914.166870,1012.369690
	C913.765503,1002.371887 912.860474,992.395264 912.268799,982.403931
	C911.874329,975.741516 911.639160,969.069763 911.371948,963.257568
	C903.673889,963.257568 896.321350,963.257629 888.968811,963.257629
	C881.795227,963.257629 874.621643,963.257568 867.907959,963.257568
	C864.055420,962.989746 860.766418,962.720581 857.472412,962.547302
	C855.516052,962.444397 853.550781,962.522339 851.591064,962.465454
	C848.865173,962.386353 846.141357,962.233459 843.415344,962.160217
	C842.252808,962.128906 841.078308,962.144714 839.925720,962.279602
	C839.129333,962.372803 837.894592,963.135803 837.649353,962.869202
	C833.143677,957.972351 826.888123,962.572083 821.864990,959.923706
	C820.488770,959.198120 818.037964,960.510620 816.065063,960.372925
	C812.910950,960.619202 809.752808,961.106506 806.603821,961.052734
	C802.337097,960.979858 798.081299,960.310303 793.814026,960.220581
	C785.301392,960.041626 776.771484,959.791077 768.274170,960.158386
	C764.083618,960.339478 759.957947,961.871765 755.785583,962.705750
	C754.329590,962.996765 752.377808,963.699890 751.411987,963.062988
	C746.595703,959.886902 742.810791,963.212219 738.584045,964.437256
	C735.136902,965.436340 731.486938,965.825439 727.898193,966.229919
	C715.680115,967.606995 703.436523,968.763184 691.227844,970.216003
	C683.010803,971.193848 674.767090,973.742065 666.667358,973.278809
	C661.282227,972.970825 656.774658,974.930786 651.189087,975.091675
	C647.639954,974.194641 644.681274,973.507751 641.789856,972.605225
	C640.488037,972.198853 638.436035,971.556396 638.245300,970.687256
	C637.428711,966.967102 634.577332,967.593201 632.081299,967.102478
	C629.644592,966.623413 627.273010,965.813477 624.775879,965.065063
	C624.296936,964.756470 623.914917,964.531677 623.271240,964.070374
	C622.847412,963.663757 622.685181,963.493591 622.320129,963.228516
	C621.683960,963.028320 621.250610,962.923035 620.771118,962.468384
	C617.305359,958.166016 613.855286,954.238708 610.478882,950.249146
	C608.748352,948.204407 607.142090,946.054077 605.493042,943.941040
	C602.306702,939.858276 597.154236,936.772156 598.779114,930.278137
	C599.499817,927.397522 600.120178,924.475891 600.534546,921.537476
	C601.653381,913.602905 605.263245,907.596985 612.921448,904.347229
	C616.666870,902.757874 620.262329,900.815063 624.275024,899.041870
	C627.113098,898.312500 629.601868,897.573364 632.090637,896.834351
	C639.476196,894.256714 646.753357,891.275452 654.287781,889.252319
	C658.829834,888.032776 663.848328,888.703796 668.517090,887.813721
	C676.186951,886.351624 683.747375,884.314697 691.352417,882.513428
	C695.925110,881.430237 700.443848,879.975342 705.076355,879.319336
	C714.476501,877.988220 724.007935,877.492676 733.349304,875.870056
	C740.027039,874.710083 746.457275,872.175720 753.048096,870.445984
	C757.141174,869.371704 761.354675,868.763489 765.467041,867.754272
	C772.676697,865.984802 779.767273,863.583313 787.059692,862.334167
	C796.461060,860.723755 806.020569,860.053040 815.492432,858.826660
	C817.874512,858.518311 820.150024,857.440308 822.529175,857.046936
	C837.151794,854.629089 851.781372,852.250305 866.429260,849.992126
	C869.944153,849.450256 873.576355,849.655762 877.084229,849.085144
	C881.780701,848.321106 886.383728,846.988159 891.076965,846.196472
	C893.305847,845.820435 895.650818,846.131836 898.158203,846.131836
	C900.366821,839.082458 897.469971,832.640930 896.409790,825.968201
	C894.813843,815.924072 893.731262,805.783020 892.830566,795.647644
	C891.693054,782.847595 890.708191,770.023010 890.130493,757.187744
	C889.698059,747.581116 890.267273,737.931641 889.919189,728.318298
	C889.619995,720.054871 888.624878,711.817932 887.990479,703.565125
	C887.255066,693.998108 886.584229,684.426086 885.862244,674.857971
	C885.804321,674.090149 885.831604,673.066162 885.372864,672.616699
	C880.318970,667.663940 879.974182,660.703308 878.309143,654.561584
	C876.795654,648.978943 877.476562,642.784729 877.315430,636.856628
	C877.136536,630.270935 880.033447,624.232361 880.868591,617.854614
	C881.335938,614.285156 880.541992,610.550537 880.576172,606.452271
	C882.252441,606.425964 883.668945,606.837708 885.114868,607.257996
	C886.148010,604.153809 886.991333,601.620239 887.834595,599.086609
z"/>
</svg>
