<svg version="1.1" id="Layer_1" xmlns="http://www.w3.org/2000/svg" xmlns:xlink="http://www.w3.org/1999/xlink" x="0px" y="0px"
	 width="100%" viewBox="0 0 830 830" enable-background="new 0 0 830 830" xml:space="preserve">
<path fill="#FFFFFF" opacity="1.000000" stroke="none" 
	d="
M440.000000,831.000000 
	C293.333374,831.000000 147.166748,831.000000 1.000098,831.000000 
	C1.000065,554.333435 1.000065,277.666931 1.000033,1.000284 
	C277.666473,1.000189 554.332947,1.000189 830.999512,1.000095 
	C830.999695,277.666382 830.999695,554.332764 830.999878,830.999573 
	C700.833313,831.000000 570.666687,831.000000 440.000000,831.000000 
M559.947571,192.823975 
	C560.643311,193.542221 561.338989,194.260483 562.533936,195.337524 
	C562.809143,196.098038 563.084290,196.858536 563.190674,198.326462 
	C563.811401,198.873001 564.432129,199.419540 565.560913,200.056168 
	C565.899841,200.111801 566.238708,200.167435 566.714172,200.912994 
	C567.170410,202.236725 567.626587,203.560455 568.085938,205.626480 
	C569.764038,208.057693 571.442078,210.488907 573.520142,213.060532 
	C573.520142,213.060532 573.892151,213.263840 573.924377,214.011215 
	C573.914673,215.273560 573.904968,216.535889 573.480408,218.055679 
	C573.197815,218.247147 573.015991,218.508682 572.141479,218.865387 
	C571.086060,218.902466 570.030640,218.939545 568.377930,218.691376 
	C564.820129,217.959000 562.962646,219.801208 562.019226,223.084885 
	C562.019226,223.084885 562.089233,223.234314 561.328857,223.057419 
	C560.552795,223.028793 559.776794,223.000153 558.629089,222.490829 
	C557.392944,223.592056 556.156799,224.693298 554.246399,225.951004 
	C553.202209,226.429977 552.158081,226.908936 550.386292,227.131363 
	C549.601685,228.092041 548.817078,229.052719 547.741760,230.409653 
	C547.528809,230.660568 547.291870,230.886230 546.401306,231.119125 
	C545.884033,231.714172 545.366821,232.309219 544.079651,232.889069 
	C543.053528,232.916931 542.027344,232.944794 540.580994,232.516113 
	C538.497253,234.048004 536.413513,235.579895 533.844055,237.539322 
	C532.898132,238.365616 531.952271,239.191925 530.270874,240.029175 
	C527.942322,242.051575 525.613831,244.073975 522.828979,246.559723 
	C522.267517,246.884964 521.706055,247.210205 520.463074,247.299438 
	C515.571960,249.382111 512.557861,252.571274 511.715881,258.275452 
	C511.070831,262.645691 512.992920,272.485199 516.648254,274.519562 
	C524.909973,279.117554 533.290344,283.494293 542.511475,276.353149 
	C543.589172,275.518555 545.406921,275.137604 546.796265,275.295837 
	C552.249634,275.916901 557.282776,275.273743 562.326294,272.762115 
	C566.479858,270.693634 570.398132,267.847748 575.825745,268.751495 
	C580.705017,269.563934 582.932861,271.328125 581.840820,276.222687 
	C580.554077,281.989471 578.131104,287.646118 577.831421,293.434967 
	C577.657654,296.792206 577.622314,301.465973 581.757263,304.041138 
	C582.916443,304.763031 583.350708,306.588135 584.238953,307.819672 
	C585.725098,309.880157 587.008240,312.247131 588.935669,313.784485 
	C590.880737,315.335846 593.490723,316.068970 595.837158,317.097168 
	C598.037048,318.061066 600.699951,320.200256 602.412231,319.619690 
	C607.227905,317.986786 611.658997,315.219330 617.266602,312.380371 
	C619.303406,312.649017 623.413269,314.971069 624.219788,308.798492 
	C624.307678,308.125671 626.067810,307.030151 626.826111,307.191772 
	C631.258301,308.136658 631.131958,306.119080 630.406494,302.763123 
	C630.082947,301.266418 630.785767,299.031555 631.849976,297.933502 
	C632.553589,297.207458 634.739990,297.813690 636.241272,297.997375 
	C637.531372,298.155273 638.791382,298.559631 640.374939,299.398376 
	C641.548828,300.289520 642.722717,301.180664 644.237061,302.709015 
	C645.794922,303.190796 647.352844,303.672607 649.118958,304.560608 
	C649.305908,304.813751 649.547668,304.992737 649.953552,305.777893 
	C650.974792,306.539642 651.996094,307.301392 653.438171,308.567444 
	C654.297302,308.706421 655.156494,308.845428 656.514343,309.232941 
	C656.988892,309.523651 657.463379,309.814331 658.051147,310.674377 
	C658.391113,310.964478 658.731018,311.254608 659.070984,311.544769 
	C659.386047,311.037720 659.701111,310.530701 660.422424,309.911896 
	C660.422424,309.911896 660.833313,309.818787 661.639099,309.932495 
	C663.684265,309.304993 666.540161,313.458649 667.971558,308.454010 
	C667.971558,308.454010 668.021240,308.038422 668.680420,308.045044 
	C669.119324,308.017914 669.558289,307.990784 670.419067,308.470001 
	C672.291138,307.674530 674.163269,306.879089 676.607971,305.764008 
	C677.636353,305.424286 678.664734,305.084564 680.551208,304.905182 
	C681.692017,304.944946 682.832825,304.984711 684.491577,305.059265 
	C684.664246,305.070435 684.836975,305.081635 685.415161,305.560242 
	C693.097046,304.923462 695.455688,302.796753 696.322510,295.536926 
	C696.829468,295.301819 697.336426,295.066681 698.698792,294.932220 
	C704.126831,296.313477 702.394226,290.716492 704.559631,288.918213 
	C703.044983,287.941528 701.530273,286.964844 699.901428,285.584198 
	C699.901428,285.584198 699.809631,285.174561 699.912048,284.382355 
	C698.618225,281.256317 697.324402,278.130280 696.098022,274.372742 
	C696.428467,273.599701 696.758972,272.826660 697.732178,271.918884 
	C697.956604,270.987000 698.181091,270.055145 698.405518,269.123260 
	C697.607666,269.055023 696.809753,268.986786 695.336182,268.804749 
	C694.221924,267.207703 693.107666,265.610626 691.442505,263.694885 
	C690.291321,262.469452 689.140198,261.244019 687.892517,259.289825 
	C686.827698,258.942505 685.762817,258.595154 684.148621,257.844055 
	C681.803040,256.203857 679.457397,254.563644 676.890686,252.372131 
	C676.278015,251.886932 675.665283,251.401733 674.948181,250.238434 
	C672.926514,248.529922 670.904785,246.821426 668.330688,244.801453 
	C667.542908,244.555939 666.755066,244.310440 665.683960,243.517471 
	C664.722290,242.440338 663.760681,241.363205 662.930298,239.483948 
	C662.973389,238.686005 663.016479,237.888046 663.688965,237.065170 
	C664.108704,237.071503 664.528503,237.077850 665.071167,237.734360 
	C666.357605,237.455536 667.643982,237.176697 669.462036,236.758926 
	C669.643677,236.735199 669.825317,236.711487 670.218384,237.359924 
	C673.916565,240.286560 674.341858,237.573563 674.772949,234.317734 
	C674.772949,234.317734 674.895508,233.892227 675.705872,233.959076 
	C677.768433,233.522507 681.089539,235.316071 681.004883,230.326233 
	C680.998291,229.880783 680.991760,229.435333 681.094482,229.068405 
	C681.094482,229.068405 681.221985,229.111435 681.845520,228.971375 
	C682.577759,228.001450 683.309998,227.031525 684.093628,225.293686 
	C684.108032,224.524292 684.122498,223.754883 684.550293,222.672333 
	C684.371643,222.116409 684.192932,221.560486 684.051147,220.279236 
	C684.132690,219.314896 684.214233,218.350540 684.873901,217.242828 
	C685.269836,217.178253 685.665710,217.113663 686.838867,217.042603 
	C688.681335,217.271103 690.523804,217.499588 692.716492,217.771515 
	C691.552429,215.444366 690.605774,213.551865 689.748108,211.102142 
	C689.828491,210.734695 689.908936,210.367249 690.633118,209.921127 
	C692.755188,206.296021 689.512634,207.416260 687.741882,206.598129 
	C687.520203,206.364288 687.265564,206.174667 686.991821,205.331238 
	C686.375000,204.533386 685.758240,203.735535 684.993713,202.551514 
	C684.993713,202.551514 684.882568,202.153336 684.958069,201.456116 
	C684.666687,200.640015 684.375305,199.823898 684.066345,198.143250 
	C684.055664,196.412796 684.044983,194.682327 683.947876,192.240936 
	C682.807312,189.636551 681.952637,186.527557 677.361511,188.914124 
	C676.932556,188.886444 676.503662,188.858749 676.030151,188.108551 
	C674.625061,185.927612 673.703857,183.015640 671.723083,181.704285 
	C666.030090,177.935394 655.599060,180.858932 650.542358,187.333084 
	C650.397827,187.456482 650.253296,187.579865 649.466187,187.365692 
	C648.992188,187.332199 648.518127,187.298721 647.680176,186.658157 
	C645.761841,187.382477 643.843506,188.106796 641.158081,188.914383 
	C640.131287,188.886261 639.104431,188.858139 637.914368,188.197037 
	C635.371887,185.920044 634.566162,187.693420 633.322327,190.014206 
	C632.546387,190.674683 631.770386,191.335159 630.236450,191.993912 
	C627.259644,192.341644 627.217773,191.003098 627.843323,188.558777 
	C628.196716,187.177856 627.376709,185.496674 626.484375,183.816528 
	C626.090088,183.707718 625.695801,183.598907 625.331665,182.975815 
	C625.259399,182.641235 625.187073,182.306656 625.118774,181.160599 
	C625.175110,179.813446 625.231445,178.466309 625.886597,176.931931 
	C625.646240,175.928177 625.405945,174.924423 625.067505,173.156189 
	C625.105164,172.131912 625.142761,171.107635 625.838013,169.905838 
	C626.040833,168.920059 626.577515,167.865799 626.391602,166.959793 
	C625.297607,161.628906 623.527649,156.386185 622.959595,151.010818 
	C622.266541,144.452530 620.716431,138.375549 616.795593,133.055908 
	C616.296692,132.379028 614.955261,132.323166 613.146240,131.972107 
	C611.429993,131.974625 609.713806,131.977142 607.466309,131.421478 
	C600.375671,130.486435 597.448914,132.282150 596.219727,138.853607 
	C596.144165,139.234390 596.068604,139.615173 595.243469,140.149643 
	C594.165222,146.314407 593.125854,152.486420 591.983032,158.639175 
	C591.671936,160.313858 591.049011,161.930588 590.569275,163.573898 
	C588.649963,162.607544 586.175354,162.091934 584.940063,160.570282 
	C583.037476,158.226608 581.324463,156.387039 577.888977,156.345078 
	C576.955383,155.500534 576.021851,154.656006 574.906006,153.162582 
	C571.261292,151.116852 567.616516,149.071121 564.000000,147.000000 
	C564.000000,147.000000 563.975952,147.029419 563.849670,146.269791 
	C559.970642,145.661102 556.093323,144.619080 552.211853,144.603088 
	C549.809692,144.593170 547.401062,146.142990 544.691711,147.552979 
	C543.445435,148.691940 542.199158,149.830917 540.213562,151.068329 
	C536.765320,154.555649 538.286133,162.584641 543.077637,165.696808 
	C544.784363,168.046722 546.491028,170.396652 548.134888,173.432312 
	C548.747803,173.960007 549.360657,174.487701 550.490540,175.422623 
	C551.077515,176.845291 551.664490,178.267960 552.148254,180.446823 
	C553.048645,182.012497 553.948975,183.578186 555.022461,185.793030 
	C556.007202,186.866806 556.991882,187.940567 558.056213,189.421417 
	C558.056213,189.421417 558.148499,189.825806 558.106934,190.490875 
	C558.691467,191.039734 559.276001,191.588593 559.947571,192.823975 
M148.049973,628.459045 
	C159.544418,636.729370 172.346756,640.189514 186.507889,639.888794 
	C210.272232,639.384033 231.599197,622.665283 237.938446,599.858521 
	C242.513062,583.400452 240.372421,567.245300 237.257874,551.073792 
	C232.062119,524.096130 227.829987,497.102966 230.714340,469.465485 
	C232.634979,451.062073 236.974426,433.463379 246.733170,417.551300 
	C264.312469,388.887451 296.424866,384.650848 322.255219,406.615875 
	C325.232300,409.147461 325.836945,411.388092 323.182892,414.461609 
	C311.017883,428.549561 301.715271,444.458984 293.887482,461.253632 
	C283.666565,483.182861 277.482239,505.965271 278.688171,530.497070 
	C279.756714,552.234009 286.767517,571.194336 301.712585,587.353333 
	C323.552307,610.967163 357.615631,616.828979 385.580902,606.495972 
	C420.373444,593.640259 436.216614,566.178345 440.656860,531.112183 
	C443.648376,507.486572 440.455139,484.049438 436.099609,460.789215 
	C434.645996,453.026306 433.195404,445.262756 431.693695,437.233582 
	C444.487274,435.349884 455.628723,437.910675 465.342743,445.767212 
	C477.758057,455.808411 484.908600,469.364868 488.588959,484.421356 
	C492.788910,501.603760 495.618103,519.123291 498.972687,536.509827 
	C509.633026,591.761475 540.034241,631.728088 591.034485,655.916748 
	C616.351318,667.924133 642.947754,673.390198 670.866699,671.668945 
	C683.425476,670.894653 695.429932,667.678223 705.892334,660.036438 
	C723.309875,647.314575 730.830200,625.345947 718.416870,605.190857 
	C713.804382,597.701782 708.172974,590.794189 704.022705,583.074951 
	C690.419006,557.773132 690.028442,530.034180 690.463928,502.341095 
	C690.905396,474.258057 692.858643,446.119873 686.664246,418.384369 
	C682.820923,401.175385 678.361267,384.176727 667.657898,369.530090 
	C647.995422,342.623840 605.934509,343.319244 587.461548,370.991730 
	C576.244141,387.795380 576.018799,406.712860 576.921875,425.816711 
	C577.775879,443.880890 578.932556,461.931488 579.674927,479.999634 
	C579.846680,484.179138 578.873962,488.405670 578.427795,492.610565 
	C578.002380,492.690277 577.576965,492.769989 577.151550,492.849670 
	C575.954102,489.039398 574.670166,485.253815 573.573547,481.414734 
	C567.271790,459.354980 561.125793,437.259613 549.892090,416.993927 
	C532.296204,385.250824 507.576385,361.984344 471.808075,352.591705 
	C461.502655,349.885559 450.545288,348.420410 439.913025,348.549194 
	C429.263916,348.678131 418.594727,351.240967 408.046661,353.309723 
	C404.549194,353.995667 403.294250,353.015778 401.989655,350.200897 
	C390.395233,325.183105 375.357971,302.760864 353.215179,285.690155 
	C325.415833,264.258575 293.964264,256.253723 259.466187,261.176392 
	C229.985565,265.383057 204.588364,279.073517 182.476593,298.493408 
	C161.803223,316.650055 145.334396,338.413971 132.683228,362.865234 
	C107.744446,411.065155 97.404114,462.311462 100.636673,516.502991 
	C101.995285,539.279053 106.511940,561.180847 114.845116,582.354980 
	C121.908234,600.302002 131.886459,616.166077 148.049973,628.459045 
z"/>
<path fill="#768CE2" opacity="1.000000" stroke="none" 
	d="
M147.779282,628.223755 
	C131.886459,616.166077 121.908234,600.302002 114.845116,582.354980 
	C106.511940,561.180847 101.995285,539.279053 100.636673,516.502991 
	C97.404114,462.311462 107.744446,411.065155 132.683228,362.865234 
	C145.334396,338.413971 161.803223,316.650055 182.476593,298.493408 
	C204.588364,279.073517 229.985565,265.383057 259.466187,261.176392 
	C293.964264,256.253723 325.415833,264.258575 353.215179,285.690155 
	C375.357971,302.760864 390.395233,325.183105 401.989655,350.200897 
	C403.294250,353.015778 404.549194,353.995667 408.046661,353.309723 
	C418.594727,351.240967 429.263916,348.678131 439.913025,348.549194 
	C450.545288,348.420410 461.502655,349.885559 471.808075,352.591705 
	C507.576385,361.984344 532.296204,385.250824 549.892090,416.993927 
	C561.125793,437.259613 567.271790,459.354980 573.573547,481.414734 
	C574.670166,485.253815 575.954102,489.039398 577.151550,492.849670 
	C577.576965,492.769989 578.002380,492.690277 578.427795,492.610565 
	C578.873962,488.405670 579.846680,484.179138 579.674927,479.999634 
	C578.932556,461.931488 577.775879,443.880890 576.921875,425.816711 
	C576.018799,406.712860 576.244141,387.795380 587.461548,370.991730 
	C605.934509,343.319244 647.995422,342.623840 667.657898,369.530090 
	C678.361267,384.176727 682.820923,401.175385 686.664246,418.384369 
	C692.858643,446.119873 690.905396,474.258057 690.463928,502.341095 
	C690.028442,530.034180 690.419006,557.773132 704.022705,583.074951 
	C708.172974,590.794189 713.804382,597.701782 718.416870,605.190857 
	C730.830200,625.345947 723.309875,647.314575 705.892334,660.036438 
	C695.429932,667.678223 683.425476,670.894653 670.866699,671.668945 
	C642.947754,673.390198 616.351318,667.924133 591.034485,655.916748 
	C540.034241,631.728088 509.633026,591.761475 498.972687,536.509827 
	C495.618103,519.123291 492.788910,501.603760 488.588959,484.421356 
	C484.908600,469.364868 477.758057,455.808411 465.342743,445.767212 
	C455.628723,437.910675 444.487274,435.349884 431.693695,437.233582 
	C433.195404,445.262756 434.645996,453.026306 436.099609,460.789215 
	C440.455139,484.049438 443.648376,507.486572 440.656860,531.112183 
	C436.216614,566.178345 420.373444,593.640259 385.580902,606.495972 
	C357.615631,616.828979 323.552307,610.967163 301.712585,587.353333 
	C286.767517,571.194336 279.756714,552.234009 278.688171,530.497070 
	C277.482239,505.965271 283.666565,483.182861 293.887482,461.253632 
	C301.715271,444.458984 311.017883,428.549561 323.182892,414.461609 
	C325.836945,411.388092 325.232300,409.147461 322.255219,406.615875 
	C296.424866,384.650848 264.312469,388.887451 246.733170,417.551300 
	C236.974426,433.463379 232.634979,451.062073 230.714340,469.465485 
	C227.829987,497.102966 232.062119,524.096130 237.257874,551.073792 
	C240.372421,567.245300 242.513062,583.400452 237.938446,599.858521 
	C231.599197,622.665283 210.272232,639.384033 186.507889,639.888794 
	C172.346756,640.189514 159.544418,636.729370 147.779282,628.223755 
M359.973145,488.458344 
	C359.367249,489.450104 358.751556,490.436096 358.156860,491.434509 
	C351.850311,502.022491 347.333893,513.188171 348.077026,525.788330 
	C348.538544,533.613525 352.938904,538.354065 359.402771,538.736511 
	C365.032166,539.069580 371.144714,534.718323 371.597626,527.770752 
	C372.301392,516.974548 371.695587,506.047760 370.957367,495.223175 
	C370.622253,490.309082 368.639587,485.507355 367.021301,479.150055 
	C364.080963,482.941040 362.191772,485.376801 359.973145,488.458344 
z"/>
<path fill="#E4C379" opacity="1.000000" stroke="none" 
	d="
M521.144592,247.535461 
	C521.706055,247.210205 522.267517,246.884964 523.396667,246.304565 
	C526.311707,244.039032 528.659058,242.028641 531.006409,240.018234 
	C531.952271,239.191925 532.898132,238.365616 534.452576,237.305099 
	C538.025024,237.130844 540.562927,236.573441 541.001221,232.972656 
	C542.027344,232.944794 543.053528,232.916931 544.799927,232.907288 
	C546.023743,232.312561 546.527344,231.699615 547.030945,231.086670 
	C547.291870,230.886230 547.528809,230.660568 548.239807,230.208435 
	C549.529846,229.134109 550.321899,228.261002 551.113892,227.387894 
	C552.158081,226.908936 553.202209,226.429977 554.911560,225.936798 
	C556.402649,225.624878 557.228577,225.327194 558.416138,225.023422 
	C559.881592,224.423004 560.985413,223.828659 562.089233,223.234314 
	C562.089233,223.234314 562.019226,223.084885 562.373047,223.052399 
	C564.809631,221.672134 566.892456,220.324387 568.975220,218.976639 
	C570.030640,218.939545 571.086060,218.902466 572.709900,219.137909 
	C574.486450,219.600754 575.694580,219.791061 576.902710,219.981369 
	C576.947266,218.988373 576.991882,217.995361 577.009033,216.677002 
	C576.936462,215.919037 576.891296,215.486450 577.215515,215.007660 
	C580.045532,213.033936 582.674438,211.279480 584.902649,209.112854 
	C586.201965,207.849365 586.859924,205.926270 588.078796,203.832077 
	C589.363159,199.349380 591.164429,194.278946 592.170288,189.055344 
	C592.698181,186.313904 592.491211,183.005081 591.363098,180.521637 
	C590.621765,178.889725 587.643066,178.274109 585.593201,177.163788 
	C583.797729,178.760880 582.091309,180.278717 580.242676,181.923019 
	C577.512329,178.934677 572.641663,177.431702 575.350464,172.034454 
	C576.717041,172.054840 577.733032,172.040771 578.749084,172.026703 
	C578.556396,171.461700 578.363708,170.896683 578.171021,170.331665 
	C577.114014,170.887772 576.057007,171.443893 574.630798,172.004654 
	C569.805847,174.383209 566.993225,178.223129 563.488037,183.000381 
	C568.270142,183.000381 571.757751,183.189484 575.217712,182.960388 
	C582.084351,182.505722 583.075867,188.332489 585.699219,192.441498 
	C586.128601,193.114029 586.802002,193.833435 586.794617,194.525116 
	C586.787292,195.216980 586.205017,196.054672 585.637207,196.563004 
	C582.785889,199.115509 579.703491,198.152679 578.258301,194.440933 
	C577.512817,192.526031 576.521362,190.706894 575.013428,187.516647 
	C572.989929,190.768494 571.940979,192.563721 570.783447,194.285965 
	C569.430908,196.298233 567.983765,198.246857 566.577637,200.223083 
	C566.238708,200.167435 565.899841,200.111801 565.271362,199.701767 
	C564.441101,198.771255 563.900269,198.195145 563.359497,197.619049 
	C563.084290,196.858536 562.809143,196.098038 562.288757,194.825775 
	C562.031250,193.870880 562.018860,193.427734 562.043396,192.633881 
	C565.072815,186.554245 562.336670,182.565186 554.861328,181.732788 
	C553.881897,180.875366 553.066711,180.282990 552.251465,179.690613 
	C551.664490,178.267960 551.077515,176.845291 550.221802,174.897766 
	C549.367920,173.830795 548.782837,173.288681 548.197754,172.746582 
	C546.491028,170.396652 544.784363,168.046722 543.032104,165.039429 
	C542.973450,163.926651 542.960327,163.471237 543.232666,162.816589 
	C546.188538,159.201645 544.218994,157.396088 541.138611,155.589203 
	C541.059753,154.487915 541.047791,153.750214 541.438721,153.011261 
	C545.052612,151.814255 548.275024,150.645355 551.434326,149.325531 
	C551.561951,149.272202 551.093933,147.792938 551.167847,146.733734 
	C552.611511,146.358521 553.790649,146.227600 555.020752,146.463715 
	C555.873840,149.706879 557.479675,151.164230 560.752930,151.123795 
	C562.534729,151.101807 564.923340,151.873611 566.011902,153.157593 
	C569.230164,156.953629 573.583923,157.289383 578.182739,158.222580 
	C582.306152,161.297729 586.137451,164.189636 589.979126,167.439514 
	C590.550659,171.599472 592.143188,171.280273 594.483765,169.044342 
	C598.967224,164.761261 603.694519,161.793091 609.779419,166.531982 
	C610.267395,166.912048 611.750122,165.798630 612.795837,165.721359 
	C615.390015,165.529678 618.251709,164.887192 620.486450,165.758484 
	C621.485046,166.147858 621.006226,169.804016 621.605225,171.858887 
	C622.602539,175.280243 623.927673,178.606049 625.114807,181.972076 
	C625.187073,182.306656 625.259399,182.641235 625.224426,183.642319 
	C623.620422,186.538742 621.867310,188.645966 620.720093,191.043182 
	C619.994751,192.558899 620.173706,194.507401 619.947083,196.261810 
	C621.385071,195.569824 622.849426,194.925461 624.243286,194.153748 
	C624.611572,193.949829 624.762573,193.353287 625.308960,192.992584 
	C626.056396,193.401199 626.508179,193.754242 627.005859,194.446579 
	C627.905334,195.852112 628.758911,196.918365 629.759644,198.168396 
	C633.198853,192.300995 633.870422,191.937698 640.540894,190.918671 
	C641.443115,190.780838 642.210876,189.762665 643.443909,189.097260 
	C645.201599,188.961884 646.556335,188.881393 648.067444,189.054932 
	C648.852173,188.773727 649.480469,188.238495 650.108765,187.703247 
	C650.253296,187.579865 650.397827,187.456482 651.139526,187.169678 
	C652.727539,186.931335 653.718323,186.856430 655.113770,186.847382 
	C658.428345,186.501358 661.375122,186.245224 664.223694,185.572968 
	C664.977478,185.395111 665.428711,183.935501 666.396362,183.052475 
	C668.530457,184.022614 670.287048,185.004730 671.792847,186.168732 
	C672.361633,187.233551 673.181152,188.116470 674.241394,189.039047 
	C674.482117,189.078705 674.956482,189.192932 675.024048,189.498276 
	C676.073792,189.840469 677.055969,189.877319 678.389893,189.935883 
	C679.820068,190.983612 680.898621,192.009598 681.981506,193.456177 
	C681.666199,196.572174 681.346558,199.267578 681.019470,202.348724 
	C682.154480,205.268814 683.296875,207.803177 684.638611,210.779663 
	C684.791321,212.195160 679.410095,213.499329 684.042480,216.353943 
	C684.161072,216.932297 684.228455,217.159256 684.295776,217.386200 
	C684.214233,218.350540 684.132690,219.314896 683.786987,220.631500 
	C683.522827,220.983749 683.032715,221.023911 682.688721,221.073883 
	C681.544006,223.016403 678.338379,224.323563 680.943420,227.383911 
	C681.061401,228.191727 681.141724,228.651581 681.222046,229.111435 
	C681.221985,229.111435 681.094482,229.068405 680.627197,229.027802 
	C677.310425,229.894882 674.469482,230.830063 671.609497,231.703278 
	C667.998169,232.805908 664.364502,233.837051 660.778198,235.014114 
	C660.644348,235.058044 660.906982,236.309769 660.970215,237.333801 
	C660.950378,238.116211 660.945129,238.563446 660.732788,239.161987 
	C660.992737,239.647217 661.459656,239.981171 662.144775,240.309464 
	C662.362915,240.303818 662.799011,240.286072 662.799011,240.286072 
	C663.760681,241.363205 664.722290,242.440338 665.868408,244.125793 
	C667.047119,245.480743 668.041443,246.227356 669.313599,247.124557 
	C670.742065,248.496948 671.892517,249.718765 673.090454,251.310181 
	C674.462585,252.094330 675.787231,252.508881 677.111816,252.923431 
	C679.457397,254.563644 681.803040,256.203857 684.530945,258.379242 
	C685.938538,259.282471 686.963745,259.650543 687.989014,260.018585 
	C689.140198,261.244019 690.291321,262.469452 691.718323,264.299255 
	C691.699463,269.393677 691.169312,273.887360 691.238403,278.371796 
	C691.262329,279.930389 692.709167,281.502563 693.618225,283.000519 
	C694.318176,284.153900 696.123169,285.673309 695.844849,286.220947 
	C693.465332,290.903564 690.804932,295.453857 687.991577,299.893555 
	C687.606201,300.501648 685.799255,300.045532 684.863892,300.511017 
	C683.770752,301.055023 682.911621,302.069489 681.638306,302.942749 
	C680.781372,303.585419 680.237244,304.165100 679.693115,304.744812 
	C678.664734,305.084564 677.636353,305.424286 675.935181,305.883972 
	C673.508240,306.337158 671.754150,306.670410 669.827148,306.774048 
	C669.109924,307.042450 668.565552,307.540436 668.021240,308.038422 
	C668.021240,308.038422 667.971558,308.454010 667.587219,308.684174 
	C666.144287,308.594574 665.085632,308.274780 663.960815,307.605316 
	C660.929932,307.186615 657.965210,307.117615 654.667603,307.037537 
	C653.890503,307.023254 653.446411,307.020050 652.856567,306.718536 
	C651.755249,305.979340 650.799805,305.538452 649.844299,305.097595 
	C649.547668,304.992737 649.305908,304.813751 648.988281,303.966614 
	C647.203918,302.938995 645.550293,302.505402 643.896606,302.071777 
	C642.722717,301.180664 641.548828,300.289520 640.144531,298.792236 
	C637.395020,294.810364 634.875854,291.434601 631.931152,287.488586 
	C628.317993,293.920380 627.858643,300.649170 622.957336,305.315338 
	C621.211060,306.977936 620.875366,309.041229 617.372498,308.600983 
	C614.026001,308.180359 610.152588,309.381531 606.960693,310.848663 
	C600.782104,313.688721 594.880493,312.026215 588.909912,310.702667 
	C588.130005,310.529785 587.054077,308.939667 587.137390,308.108337 
	C587.471497,304.772949 585.347290,303.369934 583.007568,301.627716 
	C583.729370,300.223175 584.389221,299.148987 585.166992,298.168335 
	C589.178528,293.110291 591.613464,292.874817 597.405457,296.136139 
	C598.421753,296.708435 600.445679,295.491333 602.004211,295.100616 
	C601.909973,294.578400 601.815735,294.056183 601.721497,293.533936 
	C600.277466,292.750183 598.916443,291.575836 597.375427,291.248260 
	C589.473755,289.568604 588.057922,284.208466 588.968872,277.270142 
	C589.463928,273.499512 587.099609,272.747467 583.997681,272.589081 
	C584.239014,269.287231 584.482544,266.396271 584.795044,262.686951 
	C581.976624,263.834137 580.496765,264.436493 578.786072,264.755249 
	C577.292419,262.526825 576.029724,260.581970 574.356079,258.004272 
	C572.249756,260.660828 570.126770,263.338348 567.685547,266.175568 
	C565.729004,267.559723 564.255005,269.413727 562.421875,269.892578 
	C556.532593,271.430969 550.499878,272.412872 544.545898,273.716248 
	C542.677734,274.125214 540.467651,274.397217 539.140503,275.560577 
	C536.242004,278.101227 533.328918,278.307190 530.008301,276.613586 
	C531.068604,273.907318 532.125549,271.568634 532.975464,269.688019 
	C536.713257,269.360931 540.285706,269.048309 544.567078,268.673615 
	C543.559509,266.847656 543.305847,265.757965 542.620728,265.249634 
	C538.495422,262.188812 534.312744,259.198883 530.035828,256.355804 
	C529.387695,255.924942 528.140442,256.324799 527.182800,256.442047 
	C523.113586,256.940277 519.049011,257.476776 514.986450,257.614502 
	C515.955811,255.504013 516.851562,253.734009 517.907532,252.065445 
	C518.898499,250.499680 520.058777,249.041153 521.144592,247.535461 
z"/>
<path fill="#E8CC8E" opacity="1.000000" stroke="none" 
	d="
M625.116821,181.566345 
	C623.927673,178.606049 622.602539,175.280243 621.605225,171.858887 
	C621.006226,169.804016 621.485046,166.147858 620.486450,165.758484 
	C618.251709,164.887192 615.390015,165.529678 612.795837,165.721359 
	C611.750122,165.798630 610.267395,166.912048 609.779419,166.531982 
	C603.694519,161.793091 598.967224,164.761261 594.483765,169.044342 
	C592.143188,171.280273 590.550659,171.599472 590.339478,167.356110 
	C591.718201,165.289352 593.418152,163.757141 593.659058,162.022324 
	C594.674133,154.713135 595.253906,147.343491 595.992981,139.995956 
	C596.068604,139.615173 596.144165,139.234390 596.559448,138.427643 
	C599.296021,133.593552 603.899658,133.252609 607.997559,131.979675 
	C609.713806,131.977142 611.429993,131.974625 613.700684,132.302444 
	C617.421204,138.269241 620.264832,143.764206 620.674744,150.665924 
	C621.062988,157.204544 623.592529,163.615982 625.180359,170.083359 
	C625.142761,171.107635 625.105164,172.131912 625.068420,173.938416 
	C625.142151,175.520157 625.214966,176.319656 625.287781,177.119156 
	C625.231445,178.466309 625.175110,179.813446 625.116821,181.566345 
z"/>
<path fill="#EBD29A" opacity="1.000000" stroke="none" 
	d="
M579.016968,265.038849 
	C580.496765,264.436493 581.976624,263.834137 584.795044,262.686951 
	C584.482544,266.396271 584.239014,269.287231 583.993652,273.021179 
	C583.074707,279.146179 582.016907,284.408783 581.285156,289.716309 
	C580.705811,293.917786 579.079102,298.381531 583.000000,302.001221 
	C585.347290,303.369934 587.471497,304.772949 587.137390,308.108337 
	C587.054077,308.939667 588.130005,310.529785 588.909912,310.702667 
	C594.880493,312.026215 600.782104,313.688721 606.960693,310.848663 
	C610.152588,309.381531 614.026001,308.180359 617.372498,308.600983 
	C620.875366,309.041229 621.211060,306.977936 622.957336,305.315338 
	C627.858643,300.649170 628.317993,293.920380 631.931152,287.488586 
	C634.875854,291.434601 637.395020,294.810364 639.989441,298.520569 
	C638.791382,298.559631 637.531372,298.155273 636.241272,297.997375 
	C634.739990,297.813690 632.553589,297.207458 631.849976,297.933502 
	C630.785767,299.031555 630.082947,301.266418 630.406494,302.763123 
	C631.131958,306.119080 631.258301,308.136658 626.826111,307.191772 
	C626.067810,307.030151 624.307678,308.125671 624.219788,308.798492 
	C623.413269,314.971069 619.303406,312.649017 617.266602,312.380371 
	C611.658997,315.219330 607.227905,317.986786 602.412231,319.619690 
	C600.699951,320.200256 598.037048,318.061066 595.837158,317.097168 
	C593.490723,316.068970 590.880737,315.335846 588.935669,313.784485 
	C587.008240,312.247131 585.725098,309.880157 584.238953,307.819672 
	C583.350708,306.588135 582.916443,304.763031 581.757263,304.041138 
	C577.622314,301.465973 577.657654,296.792206 577.831421,293.434967 
	C578.131104,287.646118 580.554077,281.989471 581.840820,276.222687 
	C582.932861,271.328125 580.705017,269.563934 575.825745,268.751495 
	C570.398132,267.847748 566.479858,270.693634 562.326294,272.762115 
	C557.282776,275.273743 552.249634,275.916901 546.796265,275.295837 
	C545.406921,275.137604 543.589172,275.518555 542.511475,276.353149 
	C533.290344,283.494293 524.909973,279.117554 516.648254,274.519562 
	C512.992920,272.485199 511.070831,262.645691 511.715881,258.275452 
	C512.557861,252.571274 515.571960,249.382111 520.803833,247.417450 
	C520.058777,249.041153 518.898499,250.499680 517.907532,252.065445 
	C516.851562,253.734009 515.955811,255.504013 514.711548,257.848389 
	C514.148010,260.677124 513.028076,263.203705 513.724731,265.041626 
	C516.503906,272.372894 522.099121,276.378967 530.004883,276.981140 
	C533.328918,278.307190 536.242004,278.101227 539.140503,275.560577 
	C540.467651,274.397217 542.677734,274.125214 544.545898,273.716248 
	C550.499878,272.412872 556.532593,271.430969 562.421875,269.892578 
	C564.255005,269.413727 565.729004,267.559723 568.104858,266.176758 
	C572.173035,265.059204 576.022400,269.489044 579.016968,265.038849 
M582.304504,267.488586 
	C582.304504,267.488586 582.548462,267.612244 582.548462,267.612244 
	C582.548462,267.612244 582.501221,267.343719 582.304504,267.488586 
z"/>
<path fill="#E5C57F" opacity="1.000000" stroke="none" 
	d="
M574.630798,172.004654 
	C572.641663,177.431702 577.512329,178.934677 580.242676,181.923019 
	C582.091309,180.278717 583.797729,178.760880 585.593201,177.163788 
	C587.643066,178.274109 590.621765,178.889725 591.363098,180.521637 
	C592.491211,183.005081 592.698181,186.313904 592.170288,189.055344 
	C591.164429,194.278946 589.363159,199.349380 588.078796,203.832077 
	C586.859924,205.926270 586.201965,207.849365 584.902649,209.112854 
	C582.674438,211.279480 580.045532,213.033936 576.911804,214.957184 
	C575.794495,214.316574 575.350281,213.680237 575.304443,213.019379 
	C579.642578,212.049988 577.742859,209.615967 577.475220,207.335831 
	C575.619934,208.010986 574.146545,208.547180 572.443115,208.868164 
	C570.836304,207.396713 569.459534,206.140457 568.082764,204.884216 
	C567.626587,203.560455 567.170410,202.236725 566.645874,200.568039 
	C567.983765,198.246857 569.430908,196.298233 570.783447,194.285965 
	C571.940979,192.563721 572.989929,190.768494 575.013428,187.516647 
	C576.521362,190.706894 577.512817,192.526031 578.258301,194.440933 
	C579.703491,198.152679 582.785889,199.115509 585.637207,196.563004 
	C586.205017,196.054672 586.787292,195.216980 586.794617,194.525116 
	C586.802002,193.833435 586.128601,193.114029 585.699219,192.441498 
	C583.075867,188.332489 582.084351,182.505722 575.217712,182.960388 
	C571.757751,183.189484 568.270142,183.000381 563.488037,183.000381 
	C566.993225,178.223129 569.805847,174.383209 574.630798,172.004654 
z"/>
<path fill="#EBD29A" opacity="1.000000" stroke="none" 
	d="
M681.950989,302.879822 
	C682.911621,302.069489 683.770752,301.055023 684.863892,300.511017 
	C685.799255,300.045532 687.606201,300.501648 687.991577,299.893555 
	C690.804932,295.453857 693.465332,290.903564 695.844849,286.220947 
	C696.123169,285.673309 694.318176,284.153900 693.618225,283.000519 
	C692.709167,281.502563 691.262329,279.930389 691.238403,278.371796 
	C691.169312,273.887360 691.699463,269.393677 691.993774,264.458588 
	C693.107666,265.610626 694.221924,267.207703 695.793884,269.174438 
	C696.530884,270.380615 696.810120,271.217102 697.089417,272.053619 
	C696.758972,272.826660 696.428467,273.599701 695.759277,274.822876 
	C694.604065,277.374817 696.545105,281.753693 699.809631,285.174561 
	C699.809631,285.174561 699.901428,285.584198 699.945068,286.186218 
	C700.261169,288.511169 700.533630,290.234131 700.750122,291.603638 
	C699.676331,292.796082 698.759827,293.813812 697.843384,294.831543 
	C697.336426,295.066681 696.829468,295.301819 695.845337,295.918182 
	C691.915283,299.230560 688.462463,302.161713 685.009644,305.092865 
	C684.836975,305.081635 684.664246,305.070435 684.122314,304.761292 
	C683.152344,303.935486 682.551636,303.407654 681.950989,302.879822 
z"/>
<path fill="#F7EDD6" opacity="1.000000" stroke="none" 
	d="
M625.509155,169.994598 
	C623.592529,163.615982 621.062988,157.204544 620.674744,150.665924 
	C620.264832,143.764206 617.421204,138.269241 614.129639,132.306213 
	C614.955261,132.323166 616.296692,132.379028 616.795593,133.055908 
	C620.716431,138.375549 622.266541,144.452530 622.959595,151.010818 
	C623.527649,156.386185 625.297607,161.628906 626.391602,166.959793 
	C626.577515,167.865799 626.040833,168.920059 625.509155,169.994598 
z"/>
<path fill="#E8CC8E" opacity="1.000000" stroke="none" 
	d="
M577.890686,158.039322 
	C573.583923,157.289383 569.230164,156.953629 566.011902,153.157593 
	C564.923340,151.873611 562.534729,151.101807 560.752930,151.123795 
	C557.479675,151.164230 555.873840,149.706879 555.435059,146.419800 
	C558.524231,146.349060 561.250061,146.689240 563.975952,147.029419 
	C563.975952,147.029419 564.000000,147.000000 564.035889,147.352295 
	C567.743958,149.740219 571.416138,151.775833 575.088257,153.811462 
	C576.021851,154.656006 576.955383,155.500534 577.936401,156.920654 
	C577.952759,157.677261 577.921753,157.858292 577.890686,158.039322 
z"/>
<path fill="#F7EDD6" opacity="1.000000" stroke="none" 
	d="
M578.182739,158.222580 
	C577.921753,157.858292 577.952759,157.677261 578.033020,157.224625 
	C581.324463,156.387039 583.037476,158.226608 584.940063,160.570282 
	C586.175354,162.091934 588.649963,162.607544 590.569214,163.573898 
	C591.049011,161.930588 591.671936,160.313858 591.983032,158.639175 
	C593.125854,152.486420 594.165222,146.314407 595.618225,140.072800 
	C595.253906,147.343491 594.674133,154.713135 593.659058,162.022324 
	C593.418152,163.757141 591.718201,165.289352 590.329102,166.998138 
	C586.137451,164.189636 582.306152,161.297729 578.182739,158.222580 
z"/>
<path fill="#EBD29A" opacity="1.000000" stroke="none" 
	d="
M660.984802,236.998642 
	C660.906982,236.309769 660.644348,235.058044 660.778198,235.014114 
	C664.364502,233.837051 667.998169,232.805908 671.609497,231.703278 
	C674.469482,230.830063 677.310425,229.894882 680.572510,228.988541 
	C680.991760,229.435333 680.998291,229.880783 680.679688,230.780136 
	C678.700989,232.461273 675.114502,229.718948 674.895508,233.892227 
	C674.895508,233.892227 674.772949,234.317734 674.433472,234.636597 
	C672.731628,235.532898 671.369263,236.110352 670.006897,236.687775 
	C669.825317,236.711487 669.643677,236.735199 668.799805,236.841553 
	C667.074524,236.977509 666.011353,237.030853 664.948242,237.084183 
	C664.528503,237.077850 664.108704,237.071503 663.029419,237.036377 
	C661.908203,237.004623 661.446533,237.001633 660.984802,236.998642 
z"/>
<path fill="#E6C782" opacity="1.000000" stroke="none" 
	d="
M683.991272,216.002563 
	C679.410095,213.499329 684.791321,212.195160 684.638611,210.779663 
	C683.296875,207.803177 682.154480,205.268814 681.357178,202.357620 
	C682.153320,201.973785 682.604370,201.966797 683.360352,201.989899 
	C684.071106,202.064438 684.476807,202.108887 684.882568,202.153336 
	C684.882568,202.153336 684.993713,202.551514 685.039795,203.074310 
	C685.716675,204.407822 686.347351,205.218552 686.978027,206.029266 
	C687.265564,206.174667 687.520203,206.364288 687.975220,207.084442 
	C688.802185,208.380463 689.395752,209.190140 689.989319,209.999817 
	C689.908936,210.367249 689.828491,210.734695 689.399902,211.515686 
	C688.365662,213.228790 687.679565,214.528366 686.788452,215.611984 
	C685.719421,215.598206 684.855347,215.800385 683.991272,216.002563 
z"/>
<path fill="#F7EDD6" opacity="1.000000" stroke="none" 
	d="
M672.043640,185.986847 
	C670.287048,185.004730 668.530457,184.022614 666.013672,182.967285 
	C660.259583,180.177734 657.637146,183.894012 654.709167,186.781525 
	C653.718323,186.856430 652.727539,186.931335 651.364014,186.993973 
	C655.599060,180.858932 666.030090,177.935394 671.723083,181.704285 
	C673.703857,183.015640 674.625061,185.927612 675.774170,188.565918 
	C675.330994,189.079849 675.143738,189.136398 674.956482,189.192932 
	C674.956482,189.192932 674.482117,189.078705 674.221863,188.718018 
	C673.322266,187.567169 672.682983,186.777008 672.043640,185.986847 
z"/>
<path fill="#E8CC8E" opacity="1.000000" stroke="none" 
	d="
M625.013367,192.937042 
	C624.762573,193.353287 624.611572,193.949829 624.243286,194.153748 
	C622.849426,194.925461 621.385071,195.569824 619.947083,196.261810 
	C620.173706,194.507401 619.994751,192.558899 620.720093,191.043182 
	C621.867310,188.645966 623.620422,186.538742 625.209351,183.899475 
	C625.695801,183.598907 626.090088,183.707718 626.741455,184.274933 
	C626.336853,187.467911 625.675110,190.202469 625.013367,192.937042 
z"/>
<path fill="#E8CC8E" opacity="1.000000" stroke="none" 
	d="
M643.040894,189.152145 
	C642.210876,189.762665 641.443115,190.780838 640.540894,190.918671 
	C633.870422,191.937698 633.198853,192.300995 629.759644,198.168396 
	C628.758911,196.918365 627.905334,195.852112 627.361084,194.416718 
	C628.778442,193.363586 629.886414,192.679596 630.994446,191.995621 
	C631.770386,191.335159 632.546387,190.674683 633.993042,189.975983 
	C635.801758,189.568527 636.939697,189.199265 638.077637,188.830017 
	C639.104431,188.858139 640.131287,188.886261 641.819458,188.958374 
	C642.667542,189.052292 642.854187,189.102219 643.040894,189.152145 
z"/>
<path fill="#E8CC8E" opacity="1.000000" stroke="none" 
	d="
M550.903442,146.978043 
	C551.093933,147.792938 551.561951,149.272202 551.434326,149.325531 
	C548.275024,150.645355 545.052612,151.814255 541.412231,152.671326 
	C540.972900,151.878387 540.962891,151.424149 540.952881,150.969894 
	C542.199158,149.830917 543.445435,148.691940 545.267822,147.283310 
	C547.530457,147.001770 549.216919,146.989914 550.903442,146.978043 
z"/>
<path fill="#F7EDD6" opacity="1.000000" stroke="none" 
	d="
M551.167847,146.733734 
	C549.216919,146.989914 547.530457,147.001770 545.419678,147.003143 
	C547.401062,146.142990 549.809692,144.593170 552.211853,144.603088 
	C556.093323,144.619080 559.970642,145.661102 563.912842,146.649597 
	C561.250061,146.689240 558.524231,146.349060 555.384094,146.052780 
	C553.790649,146.227600 552.611511,146.358521 551.167847,146.733734 
z"/>
<path fill="#F7ECD6" opacity="1.000000" stroke="none" 
	d="
M685.212402,305.326538 
	C688.462463,302.161713 691.915283,299.230560 695.688293,296.154083 
	C695.455688,302.796753 693.097046,304.923462 685.212402,305.326538 
z"/>
<path fill="#F7EDD6" opacity="1.000000" stroke="none" 
	d="
M540.583252,151.019104 
	C540.962891,151.424149 540.972900,151.878387 541.009399,152.672577 
	C541.047791,153.750214 541.059753,154.487915 541.087097,155.996277 
	C541.717407,158.849884 542.332336,160.932846 542.947205,163.015808 
	C542.960327,163.471237 542.973450,163.926651 542.924805,164.719116 
	C538.286133,162.584641 536.765320,154.555649 540.583252,151.019104 
z"/>
<path fill="#F7ECD6" opacity="1.000000" stroke="none" 
	d="
M698.271057,294.881897 
	C698.759827,293.813812 699.676331,292.796082 700.750122,291.603638 
	C700.533630,290.234131 700.261169,288.511169 700.002197,286.388214 
	C701.530273,286.964844 703.044983,287.941528 704.559631,288.918213 
	C702.394226,290.716492 704.126831,296.313477 698.271057,294.881897 
z"/>
<path fill="#F7EDD6" opacity="1.000000" stroke="none" 
	d="
M607.731934,131.700577 
	C603.899658,133.252609 599.296021,133.593552 596.596802,138.138840 
	C597.448914,132.282150 600.375671,130.486435 607.731934,131.700577 
z"/>
<path fill="#F7ECD6" opacity="1.000000" stroke="none" 
	d="
M699.860840,284.778442 
	C696.545105,281.753693 694.604065,277.374817 695.725525,275.138641 
	C697.324402,278.130280 698.618225,281.256317 699.860840,284.778442 
z"/>
<path fill="#E4C379" opacity="1.000000" stroke="none" 
	d="
M572.673096,209.083374 
	C574.146545,208.547180 575.619934,208.010986 577.475220,207.335831 
	C577.742859,209.615967 579.642578,212.049988 575.046265,213.050720 
	C574.223877,213.159027 574.057983,213.211426 573.892151,213.263840 
	C573.892151,213.263840 573.520142,213.060532 573.290527,212.605942 
	C572.931580,211.128693 572.802307,210.106033 572.673096,209.083374 
z"/>
<path fill="#F7EDD6" opacity="1.000000" stroke="none" 
	d="
M630.615479,191.994766 
	C629.886414,192.679596 628.778442,193.363586 627.315186,194.077438 
	C626.508179,193.754242 626.056396,193.401199 625.308960,192.992599 
	C625.675110,190.202469 626.336853,187.467911 627.041931,184.342041 
	C627.376709,185.496674 628.196716,187.177856 627.843323,188.558777 
	C627.217773,191.003098 627.259644,192.341644 630.615479,191.994766 
z"/>
<path fill="#F7EDD6" opacity="1.000000" stroke="none" 
	d="
M574.997131,153.487030 
	C571.416138,151.775833 567.743958,149.740219 564.021851,147.364990 
	C567.616516,149.071121 571.261292,151.116852 574.997131,153.487030 
z"/>
<path fill="#EBD29A" opacity="1.000000" stroke="none" 
	d="
M655.000549,307.048615 
	C657.965210,307.117615 660.929932,307.186615 663.610229,307.624146 
	C662.494995,308.601410 661.664185,309.210083 660.833313,309.818787 
	C660.833313,309.818787 660.422424,309.911896 659.872192,309.951904 
	C658.860657,310.029602 658.399292,310.067322 657.937927,310.105042 
	C657.463379,309.814331 656.988892,309.523651 656.168335,308.851257 
	C655.548462,307.995911 655.274536,307.522247 655.000549,307.048615 
z"/>
<path fill="#F7EDD6" opacity="1.000000" stroke="none" 
	d="
M568.676575,218.834015 
	C566.892456,220.324387 564.809631,221.672134 562.341675,222.976105 
	C562.962646,219.801208 564.820129,217.959000 568.676575,218.834015 
z"/>
<path fill="#F7EDD6" opacity="1.000000" stroke="none" 
	d="
M572.443054,208.868164 
	C572.802307,210.106033 572.931580,211.128693 573.090515,212.535736 
	C571.442078,210.488907 569.764038,208.057693 568.084351,205.255341 
	C569.459534,206.140457 570.836304,207.396713 572.443054,208.868164 
z"/>
<path fill="#EBD29A" opacity="1.000000" stroke="none" 
	d="
M530.638672,240.023712 
	C528.659058,242.028641 526.311707,244.039032 523.624817,246.072906 
	C525.613831,244.073975 527.942322,242.051575 530.638672,240.023712 
z"/>
<path fill="#F7ECD6" opacity="1.000000" stroke="none" 
	d="
M686.993469,215.827942 
	C687.679565,214.528366 688.365662,213.228790 689.355469,211.794296 
	C690.605774,213.551865 691.552429,215.444366 692.716492,217.771515 
	C690.523804,217.499588 688.681335,217.271103 686.540100,216.799561 
	C686.492065,216.313660 686.742798,216.070801 686.993469,215.827942 
z"/>
<path fill="#EBD29A" opacity="1.000000" stroke="none" 
	d="
M540.791138,232.744385 
	C540.562927,236.573441 538.025024,237.130844 534.695435,237.091339 
	C536.413513,235.579895 538.497253,234.048004 540.791138,232.744385 
z"/>
<path fill="#EBD39D" opacity="1.000000" stroke="none" 
	d="
M683.055420,201.959808 
	C682.604370,201.966797 682.153320,201.973785 681.364563,201.971893 
	C681.346558,199.267578 681.666199,196.572174 682.324463,193.441284 
	C683.120178,192.987823 683.577209,192.969849 684.034302,192.951874 
	C684.044983,194.682327 684.055664,196.412796 683.798950,198.766037 
	C683.372864,200.245819 683.214111,201.102814 683.055420,201.959808 
z"/>
<path fill="#F7EDD6" opacity="1.000000" stroke="none" 
	d="
M683.991089,192.596405 
	C683.577209,192.969849 683.120178,192.987823 682.320068,193.020691 
	C680.898621,192.009598 679.820068,190.983612 678.380920,189.676544 
	C678.015747,189.222076 678.011230,189.048676 678.006714,188.875290 
	C681.952637,186.527557 682.807312,189.636551 683.991089,192.596405 
z"/>
<path fill="#EBD29A" opacity="1.000000" stroke="none" 
	d="
M680.905701,227.035950 
	C678.338379,224.323563 681.544006,223.016403 682.713135,221.377533 
	C683.433289,222.082626 683.785156,222.534058 684.136963,222.985489 
	C684.122498,223.754883 684.108032,224.524292 683.717651,225.649826 
	C682.529663,226.349289 681.717712,226.692627 680.905701,227.035950 
z"/>
<path fill="#F7ECD6" opacity="1.000000" stroke="none" 
	d="
M673.042969,250.940582 
	C671.892517,249.718765 670.742065,248.496948 669.299194,246.813309 
	C668.965576,245.938614 668.924377,245.525757 668.883118,245.112915 
	C670.904785,246.821426 672.926514,248.529922 674.665527,250.607758 
	C673.936279,250.964920 673.489624,250.952759 673.042969,250.940582 
z"/>
<path fill="#F7ECD6" opacity="1.000000" stroke="none" 
	d="
M675.300659,233.925659 
	C675.114502,229.718948 678.700989,232.461273 680.657043,231.114166 
	C681.089539,235.316071 677.768433,233.522507 675.300659,233.925659 
z"/>
<path fill="#F7EDD6" opacity="1.000000" stroke="none" 
	d="
M643.443909,189.097260 
	C642.854187,189.102219 642.667542,189.052292 642.203003,188.916748 
	C643.843506,188.106796 645.761841,187.382477 647.858521,187.217194 
	C647.994873,188.117798 647.952942,188.459351 647.911011,188.800903 
	C646.556335,188.881393 645.201599,188.961884 643.443909,189.097260 
z"/>
<path fill="#F7ECD6" opacity="1.000000" stroke="none" 
	d="
M661.236206,309.875641 
	C661.664185,309.210083 662.494995,308.601410 663.676453,307.973877 
	C665.085632,308.274780 666.144287,308.594574 667.558105,308.891418 
	C666.540161,313.458649 663.684265,309.304993 661.236206,309.875641 
z"/>
<path fill="#F7ECD6" opacity="1.000000" stroke="none" 
	d="
M670.112671,237.023865 
	C671.369263,236.110352 672.731628,235.532898 674.400085,234.855469 
	C674.341858,237.573563 673.916565,240.286560 670.112671,237.023865 
z"/>
<path fill="#E8CC8E" opacity="1.000000" stroke="none" 
	d="
M577.036499,217.002365 
	C576.991882,217.995361 576.947266,218.988373 576.902710,219.981369 
	C575.694580,219.791061 574.486450,219.600754 573.106567,219.125351 
	C573.015991,218.508682 573.197815,218.247147 574.018677,217.971909 
	C575.383484,217.592880 576.210022,217.297623 577.036499,217.002365 
z"/>
<path fill="#F7EDD6" opacity="1.000000" stroke="none" 
	d="
M552.199829,180.068726 
	C553.066711,180.282990 553.881897,180.875366 554.841919,182.095581 
	C555.028992,183.445206 555.071289,184.166977 555.047729,184.952789 
	C554.981934,185.016815 554.849304,185.143875 554.849304,185.143875 
	C553.948975,183.578186 553.048645,182.012497 552.199829,180.068726 
z"/>
<path fill="#F7ECD6" opacity="1.000000" stroke="none" 
	d="
M670.000000,307.003632 
	C671.754150,306.670410 673.508240,306.337158 675.648865,306.043762 
	C674.163269,306.879089 672.291138,307.674530 670.207520,307.976929 
	C669.995911,307.483887 670.000000,307.003632 670.000000,307.003632 
z"/>
<path fill="#F7EDD6" opacity="1.000000" stroke="none" 
	d="
M558.054504,225.029495 
	C557.228577,225.327194 556.402649,225.624878 555.248657,225.858551 
	C556.156799,224.693298 557.392944,223.592056 558.716675,222.998962 
	C558.554382,224.014557 558.304443,224.522018 558.054504,225.029495 
z"/>
<path fill="#F7EDD6" opacity="1.000000" stroke="none" 
	d="
M577.009033,216.677002 
	C576.210022,217.297623 575.383484,217.592880 574.226135,217.843185 
	C573.904968,216.535889 573.914673,215.273560 573.908264,213.637527 
	C574.057983,213.211426 574.223877,213.159027 574.647888,213.075256 
	C575.350281,213.680237 575.794495,214.316574 576.542419,215.003387 
	C576.891296,215.486450 576.936462,215.919037 577.009033,216.677002 
z"/>
<path fill="#EBD29A" opacity="1.000000" stroke="none" 
	d="
M644.066833,302.390381 
	C645.550293,302.505402 647.203918,302.938995 648.884155,303.763489 
	C647.352844,303.672607 645.794922,303.190796 644.066833,302.390381 
z"/>
<path fill="#F7EDD6" opacity="1.000000" stroke="none" 
	d="
M557.976624,189.014343 
	C556.991882,187.940567 556.007202,186.866806 554.935913,185.468445 
	C554.849304,185.143875 554.981934,185.016815 555.355347,185.010818 
	C556.507446,185.664948 557.286133,186.325073 558.038086,187.322601 
	C557.999695,188.111435 557.988159,188.562897 557.976624,189.014343 
z"/>
<path fill="#F7ECD6" opacity="1.000000" stroke="none" 
	d="
M697.410767,271.986267 
	C696.810120,271.217102 696.530884,270.380615 696.131714,269.231323 
	C696.809753,268.986786 697.607666,269.055023 698.405518,269.123260 
	C698.181091,270.055145 697.956604,270.987000 697.410767,271.986267 
z"/>
<path fill="#F7ECD6" opacity="1.000000" stroke="none" 
	d="
M690.311218,209.960480 
	C689.395752,209.190140 688.802185,208.380463 688.119629,207.274933 
	C689.512634,207.416260 692.755188,206.296021 690.311218,209.960480 
z"/>
<path fill="#F7EDD6" opacity="1.000000" stroke="none" 
	d="
M637.995972,188.513519 
	C636.939697,189.199265 635.801758,189.568527 634.304749,189.918289 
	C634.566162,187.693420 635.371887,185.920044 637.995972,188.513519 
z"/>
<path fill="#EBD29A" opacity="1.000000" stroke="none" 
	d="
M550.750122,227.259628 
	C550.321899,228.261002 549.529846,229.134109 548.385132,230.010315 
	C548.817078,229.052719 549.601685,228.092041 550.750122,227.259628 
z"/>
<path fill="#E8CC8E" opacity="1.000000" stroke="none" 
	d="
M558.016418,189.217880 
	C557.988159,188.562897 557.999695,188.111435 558.355652,187.357788 
	C559.124573,188.041138 559.549072,189.026688 559.667480,189.996033 
	C558.957031,189.928497 558.552795,189.877151 558.148499,189.825806 
	C558.148499,189.825806 558.056213,189.421417 558.016418,189.217880 
z"/>
<path fill="#F7ECD6" opacity="1.000000" stroke="none" 
	d="
M680.943420,227.383911 
	C681.717712,226.692627 682.529663,226.349289 683.692017,226.033783 
	C683.309998,227.031525 682.577759,228.001450 681.533813,229.041412 
	C681.141724,228.651581 681.061401,228.191727 680.943420,227.383911 
z"/>
<path fill="#EBD29A" opacity="1.000000" stroke="none" 
	d="
M649.898926,305.437744 
	C650.799805,305.538452 651.755249,305.979340 652.859009,306.980042 
	C653.010559,307.714294 653.013977,307.888733 653.017334,308.063141 
	C651.996094,307.301392 650.974792,306.539642 649.898926,305.437744 
z"/>
<path fill="#F7ECD6" opacity="1.000000" stroke="none" 
	d="
M681.638306,302.942749 
	C682.551636,303.407654 683.152344,303.935486 683.863281,304.743896 
	C682.832825,304.984711 681.692017,304.944946 680.122192,304.825012 
	C680.237244,304.165100 680.781372,303.585419 681.638306,302.942749 
z"/>
<path fill="#F7ECD6" opacity="1.000000" stroke="none" 
	d="
M665.009705,237.409271 
	C666.011353,237.030853 667.074524,236.977509 668.534058,236.911011 
	C667.643982,237.176697 666.357605,237.455536 665.009705,237.409271 
z"/>
<path fill="#EBD29A" opacity="1.000000" stroke="none" 
	d="
M673.090454,251.310181 
	C673.489624,250.952759 673.936279,250.964920 674.717773,250.946808 
	C675.665283,251.401733 676.278015,251.886932 677.001221,252.647781 
	C675.787231,252.508881 674.462585,252.094330 673.090454,251.310181 
z"/>
<path fill="#EBD29A" opacity="1.000000" stroke="none" 
	d="
M668.606934,244.957184 
	C668.924377,245.525757 668.965576,245.938614 669.021240,246.662720 
	C668.041443,246.227356 667.047119,245.480743 666.010071,244.399536 
	C666.755066,244.310440 667.542908,244.555939 668.606934,244.957184 
z"/>
<path fill="#E8CC8E" opacity="1.000000" stroke="none" 
	d="
M558.416138,225.023422 
	C558.304443,224.522018 558.554382,224.014557 558.902527,223.239319 
	C559.776794,223.000153 560.552795,223.028793 561.709045,223.145874 
	C560.985413,223.828659 559.881592,224.423004 558.416138,225.023422 
z"/>
<path fill="#E8CC8E" opacity="1.000000" stroke="none" 
	d="
M677.684082,188.894714 
	C678.011230,189.048676 678.015747,189.222076 678.029236,189.654816 
	C677.055969,189.877319 676.073792,189.840469 675.024048,189.498276 
	C675.143738,189.136398 675.330994,189.079849 675.796509,188.927185 
	C676.503662,188.858749 676.932556,188.886444 677.684082,188.894714 
z"/>
<path fill="#F7EDD6" opacity="1.000000" stroke="none" 
	d="
M683.360352,201.989899 
	C683.214111,201.102814 683.372864,200.245819 683.807739,199.198303 
	C684.375305,199.823898 684.666687,200.640015 684.920288,201.804718 
	C684.476807,202.108887 684.071106,202.064438 683.360352,201.989899 
z"/>
<path fill="#E8CC8E" opacity="1.000000" stroke="none" 
	d="
M648.067444,189.054932 
	C647.952942,188.459351 647.994873,188.117798 648.040466,187.520752 
	C648.518127,187.298721 648.992188,187.332199 649.787476,187.534485 
	C649.480469,188.238495 648.852173,188.773727 648.067444,189.054932 
z"/>
<path fill="#F7EDD6" opacity="1.000000" stroke="none" 
	d="
M625.587158,177.025543 
	C625.214966,176.319656 625.142151,175.520157 625.117493,174.320663 
	C625.405945,174.924423 625.646240,175.928177 625.587158,177.025543 
z"/>
<path fill="#F7ECD6" opacity="1.000000" stroke="none" 
	d="
M687.940796,259.654205 
	C686.963745,259.650543 685.938538,259.282471 684.805664,258.581116 
	C685.762817,258.595154 686.827698,258.942505 687.940796,259.654205 
z"/>
<path fill="#F7ECD6" opacity="1.000000" stroke="none" 
	d="
M660.970215,237.333801 
	C661.446533,237.001633 661.908203,237.004623 662.714722,237.048859 
	C663.016479,237.888046 662.973389,238.686005 662.864624,239.885010 
	C662.799011,240.286072 662.362915,240.303818 662.079590,240.024109 
	C661.510864,239.499817 661.225342,239.255249 660.939819,239.010681 
	C660.945129,238.563446 660.950378,238.116211 660.970215,237.333801 
z"/>
<path fill="#EBD29A" opacity="1.000000" stroke="none" 
	d="
M686.788452,215.612000 
	C686.742798,216.070801 686.492065,216.313660 686.151489,216.802795 
	C685.665710,217.113663 685.269836,217.178253 684.584839,217.314514 
	C684.228455,217.159256 684.161072,216.932297 684.042480,216.353943 
	C684.855347,215.800385 685.719421,215.598206 686.788452,215.612000 
z"/>
<path fill="#F7EDD6" opacity="1.000000" stroke="none" 
	d="
M686.984924,205.680252 
	C686.347351,205.218552 685.716675,204.407822 685.113647,203.267395 
	C685.758240,203.735535 686.375000,204.533386 686.984924,205.680252 
z"/>
<path fill="#F7ECD6" opacity="1.000000" stroke="none" 
	d="
M653.227783,308.315308 
	C653.013977,307.888733 653.010559,307.714294 653.004761,307.278381 
	C653.446411,307.020050 653.890503,307.023254 654.667603,307.037537 
	C655.274536,307.522247 655.548462,307.995911 655.919006,308.726990 
	C655.156494,308.845428 654.297302,308.706421 653.227783,308.315308 
z"/>
<path fill="#F7EDD6" opacity="1.000000" stroke="none" 
	d="
M562.006470,192.984558 
	C562.018860,193.427734 562.031250,193.870880 562.039185,194.646393 
	C561.338989,194.260483 560.643311,193.542221 559.970703,192.418732 
	C559.993896,192.013504 560.128296,191.895752 560.369080,192.021942 
	C561.075378,192.426926 561.540955,192.705750 562.006470,192.984558 
z"/>
<path fill="#EBD29A" opacity="1.000000" stroke="none" 
	d="
M546.716125,231.102905 
	C546.527344,231.699615 546.023743,232.312561 545.184814,232.914886 
	C545.366821,232.309219 545.884033,231.714172 546.716125,231.102905 
z"/>
<path fill="#F7EDD6" opacity="1.000000" stroke="none" 
	d="
M548.166321,173.089447 
	C548.782837,173.288681 549.367920,173.830795 549.963257,174.694153 
	C549.360657,174.487701 548.747803,173.960007 548.166321,173.089447 
z"/>
<path fill="#F7ECD6" opacity="1.000000" stroke="none" 
	d="
M684.343628,222.828918 
	C683.785156,222.534058 683.433289,222.082626 683.057129,221.327545 
	C683.032715,221.023911 683.522827,220.983749 683.768555,220.994156 
	C684.192932,221.560486 684.371643,222.116409 684.343628,222.828918 
z"/>
<path fill="#EBD29A" opacity="1.000000" stroke="none" 
	d="
M669.827148,306.774048 
	C670.000000,307.003632 669.995911,307.483887 669.996582,307.723755 
	C669.558289,307.990784 669.119324,308.017914 668.350830,308.041748 
	C668.565552,307.540436 669.109924,307.042450 669.827148,306.774048 
z"/>
<path fill="#F7EDD6" opacity="1.000000" stroke="none" 
	d="
M563.275085,197.972748 
	C563.900269,198.195145 564.441101,198.771255 565.017334,199.656723 
	C564.432129,199.419540 563.811401,198.873001 563.275085,197.972748 
z"/>
<path fill="#F7ECD6" opacity="1.000000" stroke="none" 
	d="
M657.994507,310.389709 
	C658.399292,310.067322 658.860657,310.029602 659.669067,310.007812 
	C659.701111,310.530701 659.386047,311.037720 659.070984,311.544739 
	C658.731018,311.254608 658.391113,310.964478 657.994507,310.389709 
z"/>
<path fill="#F7EDD6" opacity="1.000000" stroke="none" 
	d="
M558.127686,190.158340 
	C558.552795,189.877151 558.957031,189.928497 559.677124,190.311417 
	C560.038025,191.060577 560.083130,191.478165 560.128296,191.895752 
	C560.128296,191.895752 559.993896,192.013504 559.927246,192.075485 
	C559.276001,191.588593 558.691467,191.039734 558.127686,190.158340 
z"/>
<path fill="#FBFBFE" opacity="1.000000" stroke="none" 
	d="
M360.137878,488.135437 
	C362.191772,485.376801 364.080963,482.941040 367.021301,479.150055 
	C368.639587,485.507355 370.622253,490.309082 370.957367,495.223175 
	C371.695587,506.047760 372.301392,516.974548 371.597626,527.770752 
	C371.144714,534.718323 365.032166,539.069580 359.402771,538.736511 
	C352.938904,538.354065 348.538544,533.613525 348.077026,525.788330 
	C347.333893,513.188171 351.850311,502.022491 358.156860,491.434509 
	C358.751556,490.436096 359.367249,489.450104 360.137878,488.135437 
z"/>
<path fill="#E5C680" opacity="1.000000" stroke="none" 
	d="
M530.008301,276.613586 
	C522.099121,276.378967 516.503906,272.372894 513.724731,265.041626 
	C513.028076,263.203705 514.148010,260.677124 514.707886,258.233154 
	C519.049011,257.476776 523.113586,256.940277 527.182800,256.442047 
	C528.140442,256.324799 529.387695,255.924942 530.035828,256.355804 
	C534.312744,259.198883 538.495422,262.188812 542.620728,265.249634 
	C543.305847,265.757965 543.559509,266.847656 544.567078,268.673615 
	C540.285706,269.048309 536.713257,269.360931 532.975464,269.688019 
	C532.125549,271.568634 531.068604,273.907318 530.008301,276.613586 
z"/>
<path fill="#E5C57E" opacity="1.000000" stroke="none" 
	d="
M583.007568,301.627716 
	C579.079102,298.381531 580.705811,293.917786 581.285156,289.716309 
	C582.016907,284.408783 583.074707,279.146179 583.995911,273.432098 
	C587.099609,272.747467 589.463928,273.499512 588.968872,277.270142 
	C588.057922,284.208466 589.473755,289.568604 597.375427,291.248260 
	C598.916443,291.575836 600.277466,292.750183 601.721497,293.533936 
	C601.815735,294.056183 601.909973,294.578400 602.004211,295.100616 
	C600.445679,295.491333 598.421753,296.708435 597.405457,296.136139 
	C591.613464,292.874817 589.178528,293.110291 585.166992,298.168335 
	C584.389221,299.148987 583.729370,300.223175 583.007568,301.627716 
z"/>
<path fill="#E5C57E" opacity="1.000000" stroke="none" 
	d="
M578.786072,264.755249 
	C576.022400,269.489044 572.173035,265.059204 568.423096,266.017059 
	C570.126770,263.338348 572.249756,260.660828 574.356079,258.004272 
	C576.029724,260.581970 577.292419,262.526825 578.786072,264.755249 
z"/>
<path fill="#E5C57E" opacity="1.000000" stroke="none" 
	d="
M560.369019,192.021942 
	C560.083130,191.478165 560.038025,191.060577 559.983215,190.327606 
	C559.549072,189.026688 559.124573,188.041138 558.382446,187.020401 
	C557.286133,186.325073 556.507446,185.664948 555.421143,184.946777 
	C555.071289,184.166977 555.028992,183.445206 555.006104,182.360626 
	C562.336670,182.565186 565.072815,186.554245 562.043396,192.633865 
	C561.540955,192.705750 561.075378,192.426926 560.369019,192.021942 
z"/>
<path fill="#E8CC8E" opacity="1.000000" stroke="none" 
	d="
M655.113770,186.847382 
	C657.637146,183.894012 660.259583,180.177734 665.636230,182.979248 
	C665.428711,183.935501 664.977478,185.395111 664.223694,185.572968 
	C661.375122,186.245224 658.428345,186.501358 655.113770,186.847382 
z"/>
<path fill="#E8CC8E" opacity="1.000000" stroke="none" 
	d="
M543.232788,162.816574 
	C542.332336,160.932846 541.717407,158.849884 541.153992,156.359863 
	C544.218994,157.396088 546.188538,159.201645 543.232788,162.816574 
z"/>
<path fill="#E5C57F" opacity="1.000000" stroke="none" 
	d="
M575.350464,172.034454 
	C576.057007,171.443893 577.114014,170.887772 578.171021,170.331665 
	C578.363708,170.896683 578.556396,171.461700 578.749084,172.026703 
	C577.733032,172.040771 576.717041,172.054840 575.350464,172.034454 
z"/>
<path fill="#E8CC8E" opacity="1.000000" stroke="none" 
	d="
M671.792847,186.168732 
	C672.682983,186.777008 673.322266,187.567169 673.981140,188.678360 
	C673.181152,188.116470 672.361633,187.233551 671.792847,186.168732 
z"/>
<path fill="#EBD29A" opacity="1.000000" stroke="none" 
	d="
M660.732788,239.161987 
	C661.225342,239.255249 661.510864,239.499817 661.861450,240.029755 
	C661.459656,239.981171 660.992737,239.647217 660.732788,239.161987 
z"/>
<path fill="#FFFFFF" opacity="1.000000" stroke="none" 
	d="
M582.402832,267.416138 
	C582.501221,267.343719 582.548462,267.612244 582.548462,267.612244 
	C582.548462,267.612244 582.304504,267.488586 582.402832,267.416138 
z"/>
</svg>