<svg version="1.1" id="Layer_1" xmlns="http://www.w3.org/2000/svg" xmlns:xlink="http://www.w3.org/1999/xlink" x="0px" y="0px"
	 width="100%" viewBox="0 0 1254 1254" enable-background="new 0 0 1254 1254" xml:space="preserve">
<path fill="#778EE3" opacity="1.000000" stroke="none"
	d="
M727.938354,819.967346
	C725.253357,805.345093 722.514587,791.149109 719.955139,776.920959
	C716.873779,759.791687 717.094238,742.088745 711.082581,725.478027
	C710.353210,723.462769 708.883484,721.715332 707.439636,719.316772
	C701.459656,724.905579 699.908752,731.709290 699.272644,738.191711
	C697.948486,751.685852 696.610352,765.350952 697.357849,778.830505
	C698.210876,794.213013 700.904297,809.543823 703.564941,824.763062
	C707.044739,844.667725 714.004150,863.582214 722.625000,881.770142
	C726.985596,890.970093 732.459045,899.736877 738.223755,908.155701
	C747.730164,922.039124 741.652344,936.650574 729.449768,944.834290
	C718.955627,951.872192 706.929749,954.802856 694.762329,954.784485
	C678.573364,954.760132 665.441589,947.498108 655.855835,933.920654
	C644.710205,918.133789 638.254089,900.314941 633.100525,882.048096
	C628.777649,866.725403 625.444763,851.093933 622.345825,835.465881
	C620.268921,824.992004 619.424805,814.277100 617.927002,803.684387
	C615.256897,784.800476 613.290222,765.747070 605.942810,747.886536
	C604.744934,744.974609 602.634521,742.438049 600.714600,739.356873
	C594.528564,743.944580 592.795227,749.888977 592.200256,755.883728
	C591.334106,764.609619 591.320740,773.425537 591.077087,782.206726
	C590.552368,801.120422 593.163757,819.738525 595.863770,838.412903
	C600.157593,868.109863 608.476257,896.584717 619.690002,924.318604
	C626.270813,940.594482 618.595581,955.281555 601.065979,958.814941
	C585.984131,961.854919 571.228943,960.450439 557.389404,952.830505
	C546.465393,946.815796 541.150757,936.708435 537.019653,925.736084
	C529.506409,905.780701 524.900269,885.056458 522.018494,864.002380
	C519.540039,845.894775 517.310730,827.710083 516.091431,809.484558
	C514.719238,788.972351 513.503174,768.338989 514.200073,747.825562
	C515.206421,718.201965 517.414490,688.528198 526.895996,660.069824
	C533.012695,641.710815 543.663391,627.348694 562.774048,620.478333
	C581.227295,613.844299 598.669434,615.607727 615.236877,625.814148
	C626.179932,632.555664 634.039917,642.369324 641.028564,652.949402
	C642.354675,654.956970 643.812134,656.877869 645.531311,659.291199
	C648.532104,653.163696 651.147888,647.673157 653.891602,642.247375
	C662.594604,625.036499 674.337708,610.302917 691.621643,601.316223
	C712.379028,590.523438 733.569336,588.649658 753.816895,602.980347
	C762.873779,609.390564 768.232544,618.750061 772.131653,628.963684
	C776.871704,641.380249 778.937378,654.308228 780.160278,667.506165
	C782.151306,688.993103 784.500061,710.453003 787.091309,731.876709
	C789.839661,754.599731 795.888000,776.484558 806.140930,796.996155
	C811.869751,808.456909 819.099365,818.996338 829.996704,826.368530
	C839.727722,832.951660 850.282043,834.286255 861.701477,831.718079
	C866.029480,830.744690 870.828674,830.486267 875.173340,831.255859
	C884.108643,832.838562 889.717041,841.225708 887.202881,851.454285
	C884.691833,861.669922 878.578003,869.717957 872.010620,877.212524
	C859.540588,891.443115 844.868713,903.029541 826.448120,908.767334
	C805.966736,915.147034 787.470764,910.779175 770.954651,897.432739
	C755.590759,885.017456 746.158691,868.420959 738.817627,850.547424
	C734.761353,840.671509 731.554138,830.446838 727.938354,819.967346
z"/>
<path fill="#778EE3" opacity="1.000000" stroke="none"
	d="
M436.031708,445.286896
	C436.703003,440.437164 437.666809,436.056915 437.858032,431.643188
	C438.389740,419.373077 439.154633,407.070068 438.734711,394.817474
	C438.473175,387.185791 436.685547,379.495392 434.633636,372.094482
	C433.885468,369.396118 430.600189,365.953674 428.089417,365.604462
	C425.649017,365.265076 421.967834,367.862366 420.131409,370.193909
	C411.836243,380.725769 408.926575,393.581635 406.173737,406.285736
	C403.391632,419.124786 401.057098,432.093445 399.281982,445.108368
	C397.678253,456.867065 396.725006,468.746796 396.144806,480.605438
	C395.172333,500.481934 395.044739,520.402466 393.903870,540.266724
	C393.423584,548.629456 391.276093,556.794800 385.175842,563.414612
	C377.162445,572.110535 366.913422,573.243591 356.407684,571.480774
	C350.117371,570.425293 343.661011,567.883667 338.288940,564.436584
	C330.986359,559.750671 328.536346,551.279724 328.219757,543.218933
	C327.792938,532.351990 329.040070,521.414612 329.667053,510.513062
	C329.970337,505.239502 330.662659,499.985931 330.888885,494.710846
	C331.343750,484.103668 332.004669,473.479431 331.780396,462.879150
	C331.653381,456.877899 330.700806,450.647430 328.751068,444.992188
	C326.159088,437.474060 318.500305,436.778534 314.412506,443.552734
	C311.469757,448.429321 309.128815,453.849915 307.534058,459.323425
	C303.560425,472.961487 300.918762,486.877411 301.048309,501.193787
	C301.119720,509.085846 300.830597,516.987244 301.109558,524.870056
	C301.700623,541.570190 290.695984,552.520996 272.540894,547.819336
	C256.896637,543.768005 242.695663,536.781006 231.221115,525.452393
	C222.698166,517.037842 219.267181,506.488617 220.655182,493.975830
	C223.234070,470.727203 232.162170,449.667511 242.131271,429.071869
	C252.157425,408.358368 264.007690,388.579224 280.998413,372.577576
	C294.963531,359.425537 310.960846,349.767426 330.332245,347.163971
	C335.320679,346.493530 340.568787,347.255188 345.639313,347.853180
	C349.712982,348.333588 352.425171,347.310425 353.795288,343.298767
	C359.178436,327.536896 366.487610,312.720734 377.539856,300.194977
	C387.689453,288.692139 399.754242,279.423065 413.871185,273.050385
	C423.715790,268.606262 433.952057,265.330627 444.757416,265.027130
	C466.948029,264.403717 482.836578,274.973602 493.501312,293.947205
	C502.966644,310.787018 506.461182,329.327759 509.161438,348.198730
	C512.587219,372.140259 512.483948,396.192352 511.888794,420.215179
	C511.455841,437.689392 509.650116,455.144714 508.040344,472.570007
	C506.692474,487.160675 505.295197,501.786591 502.920197,516.232544
	C499.858215,534.856995 496.641083,553.533936 491.947510,571.791504
	C486.659790,592.360229 467.639557,600.051697 448.331787,596.162109
	C443.532837,595.195374 438.609528,594.058960 434.221680,591.987427
	C421.629364,586.042480 415.245453,571.978638 417.748138,558.198364
	C422.330536,532.967041 426.749695,507.703705 430.945587,482.405426
	C432.963135,470.240753 434.317108,457.966003 436.031708,445.286896
z"/>
<path fill="#778EE3" opacity="1.000000" stroke="none"
	d="
M811.938110,738.964478
	C809.586365,726.293030 806.467407,714.117859 805.141113,701.750488
	C803.590698,687.292297 802.458740,672.608459 803.191284,658.126099
	C804.475830,632.728210 808.944397,607.850403 819.704773,584.367859
	C828.824951,564.464844 841.515930,547.308411 857.760315,532.886963
	C875.434082,517.196533 895.250610,504.688232 917.785767,497.166840
	C942.880859,488.791077 961.462585,498.264557 974.670410,519.474182
	C986.384338,538.284912 991.297974,559.321655 993.223572,581.359192
	C995.274902,604.834412 989.242798,625.858276 975.984009,644.803650
	C962.907837,663.488342 944.488708,674.360718 922.247742,679.124878
	C910.830078,681.570618 899.767700,680.660461 888.781128,677.112915
	C883.508972,675.410400 881.220642,676.799377 880.122253,682.273804
	C877.924072,693.229187 885.901917,712.857971 895.336121,718.521423
	C901.033264,721.941345 907.229126,721.851562 913.431274,719.191040
	C922.972900,715.098145 929.479919,707.755432 935.202881,699.484619
	C939.935791,692.644653 945.217651,686.424805 953.083984,682.902588
	C961.891235,678.959106 970.691406,678.674072 978.192444,684.978760
	C985.292358,690.946228 986.340393,699.702881 984.737976,708.314880
	C980.113525,733.168457 970.571899,756.016846 954.965149,776.035583
	C941.298401,793.565796 925.283020,808.461060 902.857605,813.475952
	C876.711426,819.322876 854.766724,811.538940 837.261047,790.956299
	C824.408264,775.844238 817.557556,757.959229 811.938110,738.964478
M884.930542,622.377014
	C888.182678,627.006042 893.290527,629.282776 898.250122,628.590454
	C921.749329,625.310242 935.065918,600.218506 928.433105,578.350464
	C926.123535,570.735718 918.874878,565.149902 909.191162,570.364380
	C897.010315,576.923462 889.525208,587.157043 885.010559,599.861084
	C882.448303,607.071350 880.143738,614.370117 884.930542,622.377014
z"/>
<path fill="#778EE3" opacity="1.000000" stroke="none"
	d="
M968.904480,929.796509
	C954.869507,938.454651 941.162537,947.711121 926.721436,955.628479
	C905.880432,967.054504 884.782654,978.093445 863.294067,988.237488
	C832.957458,1002.558289 801.044189,1012.711487 768.389771,1020.199768
	C750.475342,1024.307861 732.223938,1026.984985 714.080322,1030.046021
	C687.470581,1034.535400 660.566650,1034.910767 633.746521,1033.861572
	C607.402161,1032.830933 581.322815,1029.117920 555.873901,1021.581726
	C534.347412,1015.207092 513.979370,1006.500183 495.360809,993.890259
	C463.743744,972.476624 441.427704,943.602234 427.160248,908.369934
	C418.157196,886.137695 412.677856,862.915894 409.101746,839.287659
	C407.352325,827.729065 406.485443,815.983887 406.056122,804.292419
	C405.546692,790.418518 405.316040,776.475098 406.128265,762.630066
	C406.827789,750.705994 407.858612,738.590393 414.546234,727.935364
	C419.314178,720.338806 426.644135,716.973511 434.859344,714.983643
	C444.356812,712.683228 453.479828,714.430969 462.498535,717.678894
	C474.479706,721.993591 481.246643,730.752808 483.945038,742.797180
	C484.873535,746.941650 484.915405,751.323364 485.027252,755.605408
	C485.447968,771.714905 484.899017,787.899170 486.271729,803.921936
	C488.053955,824.724854 491.020050,845.444458 494.030884,866.119263
	C497.751678,891.669739 505.416962,916.120728 515.412598,939.927490
	C521.948364,955.494019 533.584534,964.820618 548.841858,970.931702
	C568.065918,978.631531 587.966125,983.612305 608.330933,986.752686
	C617.119690,988.107971 626.088562,988.372253 634.989258,988.901978
	C643.425354,989.404053 651.914429,990.251709 660.317871,989.796814
	C675.463013,988.976868 690.643555,987.891907 705.658203,985.821228
	C722.903137,983.442871 740.299927,981.046936 757.058228,976.533020
	C779.445557,970.502930 801.649048,963.370361 823.250183,954.961304
	C844.149780,946.825317 864.419617,936.940552 884.521545,926.931213
	C898.684387,919.879089 912.103882,911.334167 926.383179,903.206421
	C927.284668,902.843323 927.658386,902.729492 928.436646,902.657837
	C935.555054,902.400757 942.271606,902.150146 948.981628,901.782104
	C952.375305,901.595947 955.797363,901.417542 959.129578,900.811829
	C961.120178,900.450012 962.939819,898.650757 964.874756,898.582336
	C968.991577,898.436584 973.133362,898.998718 977.071594,899.257996
	C975.933350,908.958496 968.548096,917.814331 969.560425,928.934814
	C969.144409,929.253113 968.990234,929.503784 968.904480,929.796509
z"/>
<path fill="#778EE3" opacity="1.000000" stroke="none"
	d="
M390.769470,667.537231
	C389.736664,670.577820 388.979340,673.283936 387.962280,675.888733
	C384.323090,685.209229 377.760040,691.453430 367.738312,692.784180
	C363.840363,693.301819 359.659576,691.710205 355.610260,691.062805
	C344.721588,689.322144 338.901276,694.366455 337.989929,705.288879
	C335.806488,731.456909 340.156281,756.851929 346.615204,781.986450
	C351.467346,800.868347 357.837585,819.299622 366.979156,836.544250
	C378.876862,858.988159 391.468292,881.063660 403.662872,903.351440
	C406.667603,908.843079 409.282837,914.547363 412.093536,920.145630
	C415.176636,926.286377 414.317627,932.254150 410.065094,937.208008
	C405.887634,942.074585 399.943024,940.578918 394.696014,939.279175
	C380.200500,935.688477 367.403992,928.263672 355.542236,919.604858
	C344.494232,911.540100 333.663239,902.899902 324.056793,893.205017
	C310.341125,879.362976 298.608673,863.755493 288.414825,847.037292
	C272.979706,821.723389 262.427460,794.401489 255.505096,765.737122
	C252.351410,752.678284 250.733719,739.210388 249.035217,725.849731
	C247.559555,714.242126 246.501907,702.539246 246.109512,690.849976
	C245.822052,682.287292 246.533569,673.632874 247.560349,665.110962
	C248.015564,661.332825 247.378357,659.404907 244.088287,657.521179
	C229.147797,648.966797 214.621567,639.771912 202.668716,627.146179
	C182.756363,606.112793 180.863678,576.847229 194.167816,555.423340
	C202.110031,542.633911 214.631699,540.017151 226.988510,548.660767
	C251.580536,565.863098 278.172577,578.931030 306.921295,587.211365
	C324.578125,592.296997 342.739044,595.611877 360.600189,600.019409
	C367.076050,601.617432 373.820404,603.199524 379.585754,606.354248
	C388.273743,611.108093 391.501007,619.877686 393.103485,629.341797
	C395.271423,642.145508 393.452087,654.656372 390.769470,667.537231
z"/>
<path fill="#778EE3" opacity="1.000000" stroke="none"
	d="
M537.923950,437.695374
	C538.269043,423.944275 538.981018,410.663055 538.826904,397.391876
	C538.686768,385.327942 536.987244,373.270416 537.074646,361.218048
	C537.228333,340.030365 549.828918,326.756653 571.295959,326.795044
	C583.222046,326.816345 593.502808,329.420990 601.424622,338.878967
	C606.794495,345.290100 609.967407,352.824799 610.901672,360.846222
	C612.770996,376.896149 613.896851,393.040619 615.003418,409.168457
	C615.672729,418.923157 616.373230,428.749817 615.920227,438.491180
	C615.115356,455.799011 613.525146,473.073242 612.106262,490.348572
	C611.242676,500.863068 610.504272,511.415222 608.968445,521.841248
	C606.072998,541.497131 604.018616,561.364258 596.927307,580.161377
	C592.459412,592.004456 577.933899,601.796265 565.158936,602.121216
	C556.193054,602.349182 547.536621,602.030701 539.240112,597.801819
	C529.085938,592.626038 524.160767,583.870178 524.218811,573.370178
	C524.290405,560.406128 526.305725,547.441162 527.695862,534.499634
	C528.961731,522.715454 530.532837,510.964355 531.935913,499.194672
	C533.260986,488.079590 534.690735,476.973938 535.788086,465.835938
	C536.452881,459.088226 536.523193,452.283691 536.964844,445.511475
	C537.125183,443.054047 537.588501,440.616364 537.923950,437.695374
z"/>
<path fill="#778EE3" opacity="1.000000" stroke="none"
	d="
M714.144958,370.805237
	C715.494202,379.842682 717.260803,388.416290 717.983337,397.076996
	C719.330139,413.221039 721.002869,429.426910 720.809021,445.586304
	C720.599426,463.053558 718.944824,480.558990 716.933228,497.933472
	C714.949707,515.065674 712.247742,532.156799 708.911011,549.078613
	C705.437622,566.693542 695.647095,579.433594 677.465820,584.291260
	C667.651428,586.913513 657.953918,587.168030 648.362122,583.182251
	C637.180298,578.535767 632.199890,569.368408 632.183594,558.150818
	C632.168640,547.837341 634.130249,537.510925 635.371643,527.208313
	C636.808594,515.282349 638.641663,503.400208 639.881409,491.455322
	C641.448181,476.359558 642.830261,461.235382 643.819336,446.092560
	C644.361389,437.794525 644.049866,429.430969 643.911865,421.100464
	C643.672485,406.652222 643.814453,392.165039 642.717407,377.776489
	C642.117004,369.901489 641.772278,362.431335 644.438293,354.870483
	C648.183167,344.250244 656.221741,338.615875 666.455444,336.118073
	C679.042603,333.045837 690.889771,335.681122 700.850464,344.028015
	C708.891479,350.766235 712.444031,360.201721 714.144958,370.805237
z"/>
<path fill="#778EE3" opacity="1.000000" stroke="none"
	d="
M826.076721,434.716370
	C826.367798,444.795990 826.958130,454.409607 826.825195,464.013184
	C826.727356,471.081512 825.918152,478.166992 825.013184,485.191620
	C823.083374,500.171204 822.283813,515.436279 815.829712,529.451172
	C807.883240,546.706604 793.190002,554.909302 775.520752,559.098328
	C768.544434,560.752136 761.596436,560.573120 755.112366,557.961243
	C742.127625,552.730713 738.506287,540.885803 740.126770,528.056396
	C742.145447,512.073853 745.305969,496.213593 746.788269,480.190918
	C748.509216,461.589172 749.544312,442.874359 749.726379,424.197418
	C749.846558,411.870728 747.884583,399.528351 746.950317,387.185760
	C745.331177,365.797699 763.793518,355.816010 782.643433,358.627380
	C793.468933,360.241943 803.035706,363.532318 810.554199,371.953827
	C817.484863,379.717010 820.213379,389.244080 821.893738,398.947418
	C823.912537,410.604858 824.728882,422.470520 826.076721,434.716370
z"/>
<path fill="#E4C37B" opacity="1.000000" stroke="none"
	d="
M969.753784,928.825073
	C968.548096,917.814331 975.933350,908.958496 977.071594,899.257996
	C973.133362,898.998718 968.991577,898.436584 964.874756,898.582336
	C962.939819,898.650757 961.120178,900.450012 959.129578,900.811829
	C955.797363,901.417542 952.375305,901.595947 948.981628,901.782104
	C942.271606,902.150146 935.555054,902.400757 928.374390,902.336548
	C927.742493,900.133667 927.577393,898.294128 927.412292,896.454590
	C927.180359,896.833374 926.948364,897.212158 926.716431,897.590942
	C923.560425,896.051025 920.404419,894.511047 917.248413,892.971130
	C916.884338,892.180176 916.520325,891.389160 916.433350,890.043396
	C917.471802,887.939819 918.969666,886.333679 918.854309,884.853210
	C918.529053,880.679504 919.765564,877.893616 923.813721,876.419800
	C924.392456,876.209106 924.645935,875.104736 925.049988,874.413940
	C925.508789,874.318420 925.967529,874.222900 927.142578,874.069946
	C930.252441,872.368774 932.646057,870.725159 935.039673,869.081421
	C935.039673,869.081421 935.002319,869.014038 935.366821,869.016968
	C936.499878,868.452698 937.268433,867.885498 938.036926,867.318298
	C939.216370,866.924072 940.395813,866.529785 942.233276,866.056274
	C943.578796,865.375366 944.266235,864.773682 944.953735,864.171997
	C946.303955,864.114990 947.654175,864.057983 949.788574,863.938538
	C953.140137,862.921997 955.797852,862.155273 958.254578,860.971436
	C962.370056,858.988525 967.951843,860.853027 970.975403,856.090576
	C971.438843,856.081848 971.902222,856.073059 972.984497,856.359985
	C975.758362,856.677795 979.589600,858.472229 978.644714,854.234131
	C977.830139,850.580994 975.007996,847.375488 973.073425,843.972046
	C971.705200,840.975525 970.337036,837.979004 968.959534,834.198730
	C967.700623,830.933838 966.450989,828.452576 965.201355,825.971375
	C965.201355,825.971375 965.033081,825.558960 964.972412,824.948364
	C964.556580,822.889343 964.586609,821.158020 963.771179,820.047668
	C961.655090,817.166199 962.648315,812.412781 958.273865,810.949402
	C957.189697,808.572510 956.105530,806.195679 955.048767,803.058716
	C955.663940,796.947632 957.291321,792.271973 962.933350,790.204468
	C963.407593,790.166382 963.881836,790.128235 964.954468,790.374329
	C966.883423,791.463074 968.167419,792.360413 969.552917,793.055054
	C974.128540,795.349365 978.740723,797.570618 983.338928,799.819824
	C983.707275,799.875732 984.075623,799.931641 984.712891,800.446106
	C985.949280,802.288208 986.916809,803.671814 987.884338,805.055420
	C987.884338,805.055420 987.962646,805.033386 988.008606,805.413025
	C990.391663,807.846069 992.728699,809.899475 995.065735,811.952881
	C995.065735,811.952881 994.999573,811.993713 995.036255,812.329956
	C995.892883,814.072998 996.712708,815.479797 996.847351,815.710754
	C999.854248,814.493347 1001.663574,813.250061 1003.560486,813.097839
	C1007.657227,812.768982 1011.806152,812.843506 1015.920532,813.035706
	C1023.568604,813.393066 1025.678223,817.109436 1022.325439,824.188293
	C1023.189819,825.100647 1024.087158,826.047913 1024.984619,826.995178
	C1024.955811,828.081970 1024.927002,829.168762 1024.608765,830.949097
	C1024.277588,833.550354 1024.235718,835.458130 1024.193848,837.365906
	C1024.193848,837.365906 1024.180420,837.703857 1023.729736,837.854004
	C1021.580017,839.263855 1019.880981,840.523560 1018.122559,841.827271
	C1021.741333,842.721863 1024.399536,843.378967 1027.057861,844.036072
	C1029.974854,842.335266 1033.319580,841.206726 1036.748291,840.466675
	C1038.437988,840.101990 1040.311768,840.672729 1042.051880,840.441406
	C1046.548340,839.843750 1051.001343,838.912781 1055.501099,838.349243
	C1059.249023,837.879883 1063.097290,837.172913 1064.588379,842.487244
	C1064.904419,843.613831 1067.730591,844.036255 1069.400269,844.783142
	C1069.755493,844.837769 1070.110596,844.892334 1070.729492,845.374634
	C1071.613159,846.556763 1072.233154,847.311218 1072.853149,848.065735
	C1072.853149,848.065735 1072.933472,848.063293 1072.939941,848.467773
	C1073.451050,851.283264 1069.570435,853.615234 1072.816406,856.075745
	C1072.816406,856.075745 1072.904419,856.076294 1072.932861,856.530701
	C1073.292847,858.927429 1073.765747,860.859436 1073.909058,862.815552
	C1074.013428,864.241638 1074.157227,866.007446 1073.456787,867.084167
	C1071.512817,870.073181 1068.967041,872.666870 1066.972656,875.627930
	C1064.149414,879.819702 1060.232056,881.239929 1057.210327,879.992737
	C1053.957886,880.615784 1051.983887,880.660217 1050.336426,881.415955
	C1049.038086,882.011475 1047.402588,883.410400 1047.286499,884.587585
	C1047.182129,885.645996 1048.941650,886.888306 1049.878906,888.049500
	C1050.486938,888.583374 1051.094849,889.117249 1051.877319,890.271057
	C1054.496338,893.526855 1056.940918,896.162781 1059.385620,898.798706
	C1059.660278,898.867920 1059.877930,899.019165 1060.073975,899.816895
	C1062.034302,902.268921 1063.959351,904.156311 1065.884277,906.043701
	C1066.401855,906.344910 1066.919312,906.646057 1067.749023,907.357727
	C1068.599854,908.192688 1069.138428,908.617126 1069.677124,909.041626
	C1070.267822,909.646057 1070.858521,910.250610 1071.711426,911.457153
	C1071.287964,915.576355 1070.373169,919.070374 1070.014648,922.620605
	C1069.837769,924.371277 1070.087036,926.901245 1071.199951,927.891846
	C1073.488037,929.928345 1073.029541,931.550537 1071.556152,933.424866
	C1070.252930,935.082764 1067.543579,936.641357 1067.598145,938.166992
	C1067.746338,942.300537 1065.013062,941.422302 1062.792114,942.056030
	C1059.459717,943.006775 1056.230835,944.320251 1052.958008,945.479492
	C1052.191040,945.599792 1051.424194,945.720032 1050.005127,945.554688
	C1042.355957,945.198547 1035.322876,945.297424 1029.235352,940.970825
	C1028.975830,940.714478 1028.716187,940.458130 1028.181885,939.716553
	C1026.634399,938.475647 1025.361572,937.720093 1024.088867,936.964478
	C1023.229492,936.060852 1022.370117,935.157227 1021.214722,933.688965
	C1019.511902,930.139465 1018.105042,927.154663 1016.698242,924.169861
	C1016.194458,924.219238 1015.690735,924.268616 1015.187012,924.317993
	C1014.123718,927.877380 1013.060425,931.436707 1011.997131,934.996094
	C1011.997131,934.996094 1012.000000,935.000000 1011.629395,935.001160
	C1006.489014,935.651917 1004.707214,943.255676 998.321289,940.441528
	C996.814819,939.777649 994.669922,939.750732 993.071655,940.246399
	C985.891785,942.472961 979.552490,940.408264 973.390381,936.951965
	C973.333069,936.524353 973.275757,936.096741 973.597290,935.264160
	C974.823181,931.576355 974.823181,931.576355 969.753784,928.825073
z"/>
<path fill="#778EE3" opacity="1.000000" stroke="none"
	d="
M855.858398,470.724976
	C856.586182,459.057404 857.933838,447.828857 857.803101,436.617554
	C857.499634,410.596619 852.158386,385.598267 840.526062,362.127655
	C833.755737,348.467163 839.610229,335.007172 853.779724,332.209625
	C860.274109,330.927368 866.569336,332.505005 872.589233,335.201202
	C889.561462,342.802795 902.416809,354.997040 912.865112,370.207825
	C927.130737,390.975861 936.258972,413.761383 939.869812,438.582825
	C942.008362,453.284393 937.391357,465.656647 924.167480,474.017181
	C910.604919,482.591858 896.967590,491.049133 881.312744,495.242645
	C874.365173,497.103638 866.553345,497.875702 861.170593,492.235596
	C855.832031,486.641815 853.388062,479.262543 855.858398,470.724976
z"/>
<path fill="#778EE3" opacity="1.000000" stroke="none"
	d="
M672.099243,314.061798
	C653.193054,313.947174 635.764343,298.983978 631.945312,280.517609
	C627.035950,256.778778 640.670776,233.551010 664.650879,228.631775
	C684.720093,224.514816 704.189270,234.357132 712.356262,253.472290
	C717.541077,265.607391 717.728760,277.676392 712.142273,289.425720
	C704.312561,305.892914 690.980164,314.234344 672.099243,314.061798
z"/>
<path fill="#778EE3" opacity="1.000000" stroke="none"
	d="
M529.949890,243.039642
	C537.987488,232.680054 548.608582,227.099197 561.038269,226.160065
	C571.628357,225.359894 581.564148,228.678070 590.026367,235.520538
	C613.659607,254.630173 611.326294,290.308319 584.857666,305.923889
	C558.809875,321.291168 529.370972,305.310455 522.982300,278.249115
	C520.009583,265.656921 522.599854,254.032776 529.949890,243.039642
z"/>
<path fill="#778EE3" opacity="1.000000" stroke="none"
	d="
M762.725952,345.411743
	C747.209290,339.660767 738.417236,328.899445 735.908447,312.939941
	C732.257568,289.714294 747.420166,271.727448 765.391602,266.548187
	C782.439331,261.635132 804.235962,270.752960 812.564026,286.634460
	C822.484314,305.552124 817.575623,324.409698 805.531006,335.666870
	C793.635071,346.785034 779.316833,351.237122 762.725952,345.411743
z"/>
<path fill="#778EE3" opacity="1.000000" stroke="none"
	d="
M481.762604,629.264404
	C497.096405,647.547302 497.470184,669.683533 481.641754,686.579346
	C467.745483,701.412720 445.624542,703.341980 428.571533,691.945923
	C408.101929,678.266663 406.096222,646.762207 422.369415,629.311218
	C436.041962,614.648926 458.708893,612.400208 475.396332,623.964172
	C477.560486,625.463806 479.478302,627.318848 481.762604,629.264404
z"/>
<path fill="#E8CC8E" opacity="1.000000" stroke="none"
	d="
M1025.289062,826.742432
	C1024.087158,826.047913 1023.189819,825.100647 1022.325439,824.188293
	C1025.678223,817.109436 1023.568604,813.393066 1015.920532,813.035706
	C1011.806152,812.843506 1007.657227,812.768982 1003.560486,813.097839
	C1001.663574,813.250061 999.854248,814.493347 996.847351,815.710754
	C996.712708,815.479797 995.892883,814.072998 995.059937,812.299072
	C996.408264,810.910522 998.528870,810.156616 998.999268,808.821350
	C1001.002380,803.134827 1002.348633,797.219727 1004.269958,791.500610
	C1005.533508,787.739502 1008.036987,784.014893 1012.297119,784.603149
	C1016.473389,785.179749 1022.673401,783.088806 1023.937866,790.172546
	C1024.642822,794.121826 1025.410278,798.075439 1025.802002,802.061279
	C1026.298584,807.113220 1026.638306,812.198792 1026.664551,817.271851
	C1026.680420,820.342590 1025.974854,823.416992 1025.289062,826.742432
z"/>
<path fill="#E8CC8E" opacity="1.000000" stroke="none"
	d="
M1053.315308,945.573181
	C1056.230835,944.320251 1059.459717,943.006775 1062.792114,942.056030
	C1065.013062,941.422302 1067.746338,942.300537 1067.598145,938.166992
	C1067.543579,936.641357 1070.252930,935.082764 1071.556152,933.424866
	C1073.029541,931.550537 1073.488037,929.928345 1071.199951,927.891846
	C1070.087036,926.901245 1069.837769,924.371277 1070.014648,922.620605
	C1070.373169,919.070374 1071.287964,915.576355 1071.962524,911.651245
	C1074.391235,914.386902 1076.182373,916.939331 1074.205322,921.813232
	C1072.937012,924.939758 1075.890381,929.778625 1077.626343,933.690063
	C1077.581787,936.467102 1076.400513,938.836853 1072.645386,938.892761
	C1071.700317,938.906799 1070.623291,940.452332 1069.874756,941.487610
	C1066.495972,946.160156 1063.585938,947.046570 1057.945923,945.373230
	C1056.663452,944.992676 1055.104370,945.544312 1053.315308,945.573181
z"/>
<path fill="#E8CC8E" opacity="1.000000" stroke="none"
	d="
M973.303711,937.338257
	C979.552490,940.408264 985.891785,942.472961 993.071655,940.246399
	C994.669922,939.750732 996.814819,939.777649 998.321289,940.441528
	C1004.707214,943.255676 1006.489014,935.651917 1011.627197,934.999756
	C1012.096680,937.393677 1015.252319,941.709534 1008.842651,940.015076
	C1006.392822,945.207275 1000.969788,942.763306 997.134644,944.484985
	C993.644775,946.051636 989.783569,946.807678 986.056396,947.810669
	C985.524841,947.953674 984.677551,947.644165 984.227539,947.254272
	C980.972168,944.434204 978.566956,940.393616 973.589294,940.036865
	C973.410889,940.024170 973.338684,938.528931 973.303711,937.338257
z"/>
<path fill="#E8CC8E" opacity="1.000000" stroke="none"
	d="
M1049.858398,887.705322
	C1048.941650,886.888306 1047.182129,885.645996 1047.286499,884.587585
	C1047.402588,883.410400 1049.038086,882.011475 1050.336426,881.415955
	C1051.983887,880.660217 1053.957886,880.615784 1057.210327,879.992737
	C1060.232056,881.239929 1064.149414,879.819702 1066.972656,875.627930
	C1068.967041,872.666870 1071.512817,870.073181 1073.456787,867.084167
	C1074.157227,866.007446 1074.013428,864.241638 1073.909058,862.815552
	C1073.765747,860.859436 1073.292847,858.927429 1072.936768,856.574585
	C1079.046143,863.267029 1078.976440,864.131714 1072.480713,870.448547
	C1071.617676,871.287720 1071.277100,872.745300 1070.890381,873.977905
	C1069.522583,878.337830 1067.932861,882.059082 1062.243530,882.320801
	C1059.814575,882.432556 1058.427002,886.535217 1054.850464,885.063232
	C1053.379883,884.458008 1051.544922,884.738098 1049.429199,884.582703
	C1049.544434,885.366089 1049.691040,886.363586 1049.858398,887.705322
z"/>
<path fill="#E8CC8E" opacity="1.000000" stroke="none"
	d="
M1069.215332,844.484375
	C1067.730591,844.036255 1064.904419,843.613831 1064.588379,842.487244
	C1063.097290,837.172913 1059.249023,837.879883 1055.501099,838.349243
	C1051.001343,838.912781 1046.548340,839.843750 1042.051880,840.441406
	C1040.311768,840.672729 1038.437988,840.101990 1036.748291,840.466675
	C1033.319580,841.206726 1029.974854,842.335266 1027.057861,844.036072
	C1024.399536,843.378967 1021.741333,842.721863 1018.122559,841.827271
	C1019.880981,840.523560 1021.580017,839.263855 1023.652466,838.004456
	C1025.089844,838.984436 1027.042358,840.864563 1027.091919,840.815735
	C1031.784302,836.186707 1037.716675,840.174683 1042.812866,838.498352
	C1045.696899,837.549683 1049.026001,837.794373 1051.768677,836.608643
	C1057.546265,834.110779 1063.562744,835.751404 1066.549072,841.139587
	C1067.173950,842.266968 1068.192993,843.175964 1069.215332,844.484375
z"/>
<path fill="#E8CC8E" opacity="1.000000" stroke="none"
	d="
M983.193726,799.512207
	C978.740723,797.570618 974.128540,795.349365 969.552917,793.055054
	C968.167419,792.360413 966.883423,791.463074 965.309631,790.417358
	C968.681519,790.936096 972.593506,791.081665 975.822083,792.641724
	C978.631836,793.999634 980.669617,796.955078 983.193726,799.512207
z"/>
<path fill="#E8CC8E" opacity="1.000000" stroke="none"
	d="
M924.705200,874.337524
	C924.645935,875.104736 924.392456,876.209106 923.813721,876.419800
	C919.765564,877.893616 918.529053,880.679504 918.854309,884.853210
	C918.969666,886.333679 917.471802,887.939819 916.441650,889.712646
	C913.775879,886.323792 915.368591,880.143372 919.708679,876.840698
	C921.104980,875.778076 922.801331,875.109802 924.705200,874.337524
z"/>
<path fill="#E8CC8E" opacity="1.000000" stroke="none"
	d="
M1012.309326,934.844849
	C1013.060425,931.436707 1014.123718,927.877380 1015.187012,924.317993
	C1015.690735,924.268616 1016.194458,924.219238 1016.698242,924.169861
	C1018.105042,927.154663 1019.511902,930.139465 1020.971375,933.484497
	C1018.088013,932.790039 1015.010803,930.337708 1012.309326,934.844849
z"/>
<path fill="#E8CC8E" opacity="1.000000" stroke="none"
	d="
M917.177856,893.345215
	C920.404419,894.511047 923.560425,896.051025 926.716431,897.590942
	C926.948364,897.212158 927.180359,896.833374 927.412292,896.454590
	C927.577393,898.294128 927.742493,900.133667 927.969788,902.294434
	C927.658386,902.729492 927.284668,902.843323 926.618835,902.934204
	C923.702087,900.968872 920.976746,899.143494 918.510376,897.017761
	C917.698242,896.317871 917.555847,894.840942 917.177856,893.345215
z"/>
<path fill="#E8CC8E" opacity="1.000000" stroke="none"
	d="
M1029.228027,941.330200
	C1035.322876,945.297424 1042.355957,945.198547 1049.617310,945.488281
	C1046.993652,946.870056 1044.403564,947.458984 1040.914185,946.905701
	C1037.812744,946.413818 1034.704346,946.264465 1031.939087,944.705811
	C1030.821411,944.075806 1030.114502,942.716858 1029.228027,941.330200
z"/>
<path fill="#E8CC8E" opacity="1.000000" stroke="none"
	d="
M970.754333,855.852417
	C967.951843,860.853027 962.370056,858.988525 958.254578,860.971436
	C955.797852,862.155273 953.140137,862.921997 950.192017,863.892944
	C950.758911,859.667175 954.416931,859.943665 957.532898,859.171143
	C961.892334,858.090454 966.202209,856.809448 970.754333,855.852417
z"/>
<path fill="#E8CC8E" opacity="1.000000" stroke="none"
	d="
M962.717407,789.940430
	C957.291321,792.271973 955.663940,796.947632 955.012390,802.698486
	C954.764343,800.000732 953.458679,796.290649 954.719421,793.982239
	C955.919250,791.785461 959.799622,791.052673 962.717407,789.940430
z"/>
<path fill="#E8CC8E" opacity="1.000000" stroke="none"
	d="
M973.091309,844.369385
	C975.007996,847.375488 977.830139,850.580994 978.644714,854.234131
	C979.589600,858.472229 975.758362,856.677795 973.330078,856.400391
	C975.156494,854.854919 977.298279,853.859436 974.853455,850.729065
	C973.669067,849.212524 973.653748,846.782959 973.091309,844.369385
z"/>
<path fill="#E8CC8E" opacity="1.000000" stroke="none"
	d="
M958.325867,811.301514
	C962.648315,812.412781 961.655090,817.166199 963.771179,820.047668
	C964.586609,821.158020 964.556580,822.889343 964.927185,824.730225
	C964.006226,823.985352 962.762756,822.982483 962.193787,821.684082
	C960.759827,818.411560 959.629761,815.005859 958.325867,811.301514
z"/>
<path fill="#E8CC8E" opacity="1.000000" stroke="none"
	d="
M1059.235840,898.485291
	C1056.940918,896.162781 1054.496338,893.526855 1051.986084,890.562012
	C1054.308960,892.879272 1056.697510,895.525574 1059.235840,898.485291
z"/>
<path fill="#E8CC8E" opacity="1.000000" stroke="none"
	d="
M994.985657,811.620361
	C992.728699,809.899475 990.391663,807.846069 987.999756,805.452759
	C990.265198,807.171204 992.585388,809.229492 994.985657,811.620361
z"/>
<path fill="#E8CC8E" opacity="1.000000" stroke="none"
	d="
M965.132263,826.353394
	C966.450989,828.452576 967.700623,830.933838 968.914307,833.824341
	C967.606628,831.734253 966.334900,829.234802 965.132263,826.353394
z"/>
<path fill="#E8CC8E" opacity="1.000000" stroke="none"
	d="
M934.664551,869.078003
	C932.646057,870.725159 930.252441,872.368774 927.492798,874.032104
	C929.514282,872.392639 931.901794,870.733582 934.664551,869.078003
z"/>
<path fill="#E8CC8E" opacity="1.000000" stroke="none"
	d="
M1065.900391,905.698303
	C1063.959351,904.156311 1062.034302,902.268921 1060.152588,900.003174
	C1062.102783,901.534302 1064.009644,903.443604 1065.900391,905.698303
z"/>
<path fill="#E8CC8E" opacity="1.000000" stroke="none"
	d="
M969.560425,928.934814
	C974.823181,931.576355 974.823181,931.576355 973.676758,934.947693
	C972.038330,933.467041 970.699341,931.897949 969.132446,930.062683
	C968.990234,929.503784 969.144409,929.253113 969.560425,928.934814
z"/>
<path fill="#E8CC8E" opacity="1.000000" stroke="none"
	d="
M1072.892822,855.701172
	C1069.570435,853.615234 1073.451050,851.283264 1072.936035,848.507751
	C1077.181152,850.512207 1072.520020,852.934814 1072.892822,855.701172
z"/>
<path fill="#E8CC8E" opacity="1.000000" stroke="none"
	d="
M1024.487427,837.212708
	C1024.235718,835.458130 1024.277588,833.550354 1024.576660,831.355469
	C1027.261475,833.086975 1026.959839,835.081543 1024.487427,837.212708
z"/>
<path fill="#E8CC8E" opacity="1.000000" stroke="none"
	d="
M987.867859,804.716309
	C986.916809,803.671814 985.949280,802.288208 984.968872,800.561401
	C985.921143,801.604553 986.886230,802.990906 987.867859,804.716309
z"/>
<path fill="#E8CC8E" opacity="1.000000" stroke="none"
	d="
M1024.114746,937.313965
	C1025.361572,937.720093 1026.634399,938.475647 1027.962646,939.552612
	C1026.725586,939.137146 1025.433105,938.400269 1024.114746,937.313965
z"/>
<path fill="#E8CC8E" opacity="1.000000" stroke="none"
	d="
M944.777893,863.943726
	C944.266235,864.773682 943.578796,865.375366 942.623352,866.041321
	C943.104248,865.308838 943.853149,864.512085 944.777893,863.943726
z"/>
<path fill="#E8CC8E" opacity="1.000000" stroke="none"
	d="
M1072.886719,847.711914
	C1072.233154,847.311218 1071.613159,846.556763 1070.982910,845.469727
	C1071.621826,845.877563 1072.271118,846.617859 1072.886719,847.711914
z"/>
<path fill="#E8CC8E" opacity="1.000000" stroke="none"
	d="
M937.723022,867.274719
	C937.268433,867.885498 936.499878,868.452698 935.402222,869.032227
	C935.851746,868.440125 936.630432,867.835632 937.723022,867.274719
z"/>
<path fill="#E8CC8E" opacity="1.000000" stroke="none"
	d="
M1069.703735,908.731506
	C1069.138428,908.617126 1068.599854,908.192688 1068.015381,907.495605
	C1068.556396,907.622498 1069.143311,908.021912 1069.703735,908.731506
z"/>
</svg>
